<svg id="Layer_1_copy" data-name="Layer 1 copy" xmlns="http://www.w3.org/2000/svg" viewBox="0 0 374.3 93.59"><defs><style>.cls-1{fill:#231f20;}.cls-2{fill:none;stroke:#231f20;}.cls-3{fill:#cfb87c;}.cls-4{fill:#fff;}</style></defs><title>logo-cu-cuf</title><path class="cls-1" d="M96.58,81.1h2.25l3.74,10h-2.28l-.76-2.22H95.79L95,91.09H92.79Zm-.21,6.13H99L97.7,83.56h0Z"/><path class="cls-1" d="M103.42,81.1h4.31c2.59,0,4.53,1.62,4.53,4.94,0,2.9-1.48,5.05-4.53,5.05h-4.31Zm2.2,8.14h2c1.27,0,2.49-.78,2.49-3,0-2-.7-3.3-2.88-3.3h-1.57Z"/><path class="cls-1" d="M118.08,91.09H115.6l-3.25-10h2.27l2.22,7h0l2.25-7h2.27Z"/><path class="cls-1" d="M124.26,81.1h2.25l3.74,10H128l-.76-2.22h-3.74l-.78,2.22h-2.23Zm-.21,6.13h2.59l-1.26-3.67h0Z"/><path class="cls-1" d="M131.11,81.1h2.18l4.17,6.7h0V81.1h2.06v10h-2.2l-4.16-6.69h0v6.69h-2.06Z"/><path class="cls-1" d="M148.06,84.46a2.16,2.16,0,0,0-2.18-1.75c-2,0-2.71,1.68-2.71,3.43s.74,3.34,2.71,3.34a2.25,2.25,0,0,0,2.27-2.24h2.13a4.22,4.22,0,0,1-4.39,4.09c-3.09,0-4.91-2.31-4.91-5.19s1.82-5.28,4.91-5.28a4.05,4.05,0,0,1,4.31,3.6Z"/><path class="cls-1" d="M151.68,81.1h7.47v1.85h-5.28v2.14h4.84v1.71h-4.84v2.45h5.39v1.85h-7.58Z"/><path class="cls-1" d="M160.77,81.1h3.09L166.2,88h0l2.21-6.87h3.09v10h-2.06V84h0L167,91.09h-1.69l-2.45-7h0v7h-2.06Z"/><path class="cls-1" d="M173.43,81.1h7.47v1.85h-5.28v2.14h4.84v1.71h-4.84v2.45H181v1.85h-7.58Z"/><path class="cls-1" d="M182.53,81.1h2.18l4.17,6.7h0V81.1H191v10h-2.2l-4.16-6.69h0v6.69h-2.06Z"/><path class="cls-1" d="M195,82.95h-3V81.1h8.19v1.85h-3v8.14H195Z"/><path class="cls-1" d="M205.07,79.59h1.5v14h-1.5Z"/><path class="cls-1" d="M219.18,84.46A2.16,2.16,0,0,0,217,82.71c-2,0-2.71,1.68-2.71,3.43s.74,3.34,2.71,3.34a2.25,2.25,0,0,0,2.27-2.24h2.13A4.22,4.22,0,0,1,217,91.33c-3.09,0-4.91-2.31-4.91-5.19s1.82-5.28,4.91-5.28a4.05,4.05,0,0,1,4.31,3.6Z"/><path class="cls-1" d="M231.23,87.31c0,2.7-1.59,4-4.27,4s-4.25-1.3-4.25-4V81.1h2.2v6.21c0,1.09.28,2.17,2.06,2.17,1.57,0,2.07-.69,2.07-2.17V81.1h2.2Z"/><path class="cls-1" d="M236.82,81.1h7v1.85H239v2.31h4.18V87H239v4.13h-2.2Z"/><path class="cls-1" d="M249.26,80.86c3.09,0,4.91,2.31,4.91,5.28s-1.82,5.19-4.91,5.19-4.91-2.31-4.91-5.19S246.17,80.86,249.26,80.86Zm0,8.62c2,0,2.71-1.68,2.71-3.34s-.74-3.43-2.71-3.43-2.71,1.68-2.71,3.43S247.29,89.48,249.26,89.48Z"/><path class="cls-1" d="M264,87.31c0,2.7-1.59,4-4.27,4s-4.25-1.3-4.25-4V81.1h2.2v6.21c0,1.09.28,2.17,2.06,2.17,1.57,0,2.07-.69,2.07-2.17V81.1H264Z"/><path class="cls-1" d="M265.89,81.1h2.18l4.17,6.7h0V81.1h2.06v10h-2.2L268,84.4h0v6.69h-2.06Z"/><path class="cls-1" d="M276.22,81.1h4.31c2.59,0,4.53,1.62,4.53,4.94,0,2.9-1.48,5.05-4.53,5.05h-4.31Zm2.2,8.14h2c1.27,0,2.49-.78,2.49-3,0-2-.7-3.3-2.88-3.3h-1.57Z"/><path class="cls-1" d="M288.85,81.1h2.25l3.74,10h-2.28l-.76-2.22h-3.74l-.78,2.22h-2.22Zm-.21,6.13h2.59L290,83.56h0Z"/><path class="cls-1" d="M296.8,82.95h-3V81.1H302v1.85h-3v8.14h-2.2Z"/><path class="cls-1" d="M303,81.1h2.2v10H303Z"/><path class="cls-1" d="M311.51,80.86c3.09,0,4.91,2.31,4.91,5.28s-1.82,5.19-4.91,5.19S306.6,89,306.6,86.14,308.41,80.86,311.51,80.86Zm0,8.62c2,0,2.71-1.68,2.71-3.34s-.74-3.43-2.71-3.43-2.71,1.68-2.71,3.43S309.53,89.48,311.51,89.48Z"/><path class="cls-1" d="M317.85,81.1H320l4.17,6.7h0V81.1h2.06v10h-2.2l-4.16-6.69h0v6.69h-2.06Z"/><path class="cls-1" d="M92.9,18.16h2V31.42c0,5,2.34,6.87,6.27,6.87s6.33-1.89,6.3-6.87V18.16h2V31.87c0,4.41-2.37,8.16-8.34,8.16s-8.31-3.75-8.31-8.16Z"/><path class="cls-1" d="M113.27,24.1h1.89v2.67h.06a5.25,5.25,0,0,1,4.95-3.12c4.35,0,5.67,2.28,5.67,6v10h-1.89V29.92c0-2.67-.87-4.68-3.93-4.68s-4.8,2.28-4.86,5.31v9h-1.89Z"/><path class="cls-1" d="M129.44,18.16h1.89v3h-1.89Zm0,5.94h1.89V39.58h-1.89Z"/><path class="cls-1" d="M133.22,24.1h2.1l4.86,13.59h.06L145,24.1h2L141.2,39.58h-2Z"/><path class="cls-1" d="M150,32.35c0,2.76,1.47,6.09,5.1,6.09,2.76,0,4.26-1.62,4.86-4h1.89C161,38,159,40,155.06,40c-4.92,0-7-3.78-7-8.19,0-4.08,2.07-8.19,7-8.19s7,4.35,6.81,8.7Zm10-1.59c-.09-2.85-1.86-5.52-4.92-5.52s-4.8,2.7-5.1,5.52Z"/><path class="cls-1" d="M164.42,24.1h1.74v3.63h.06a5.72,5.72,0,0,1,5.85-3.84v1.89a5.33,5.33,0,0,0-5.76,5.55v8.25h-1.89Z"/><path class="cls-1" d="M183.14,28.63c-.09-2.34-1.89-3.39-4-3.39-1.68,0-3.66.66-3.66,2.67,0,1.68,1.92,2.28,3.21,2.61l2.52.57c2.16.33,4.41,1.59,4.41,4.29,0,3.36-3.33,4.65-6.21,4.65-3.6,0-6.06-1.68-6.36-5.46h1.89c.15,2.55,2,3.87,4.56,3.87,1.77,0,4.23-.78,4.23-2.94,0-1.8-1.68-2.4-3.39-2.82l-2.43-.54c-2.46-.66-4.32-1.5-4.32-4.14,0-3.15,3.09-4.35,5.82-4.35,3.09,0,5.55,1.62,5.67,5Z"/><path class="cls-1" d="M188.33,18.16h1.89v3h-1.89Zm0,5.94h1.89V39.58h-1.89Z"/><path class="cls-1" d="M196.85,24.1H200v1.59h-3.15V36.13c0,1.23.18,2,1.53,2a14.49,14.49,0,0,0,1.62-.09V39.7c-.57,0-1.11.06-1.68.06-2.52,0-3.39-.84-3.36-3.48V25.69h-2.7V24.1H195V19.45h1.89Z"/><path class="cls-1" d="M201,24.1h2l5.1,13.2,4.77-13.2h1.89L208,42c-1.08,2.61-1.71,3.36-4.08,3.36a4.88,4.88,0,0,1-1.44-.15V43.57a6.57,6.57,0,0,0,1.29.15c1.68,0,2.07-1,2.7-2.43l.66-1.77Z"/><path class="cls-1" d="M238.81,31.84c0,4.44-2.58,8.19-7.32,8.19s-7.32-3.75-7.32-8.19,2.58-8.19,7.32-8.19S238.81,27.4,238.81,31.84Zm-12.75,0c0,3.3,1.8,6.6,5.43,6.6s5.43-3.3,5.43-6.6-1.8-6.6-5.43-6.6S226.07,28.54,226.07,31.84Z"/><path class="cls-1" d="M247.6,25.69h-3.06V39.58h-1.89V25.69H240V24.1h2.64V22.69c0-2.67.72-4.53,3.75-4.53a10,10,0,0,1,1.59.12V19.9a7.75,7.75,0,0,0-1.38-.15c-2.1,0-2,1.32-2.07,3V24.1h3.06Z"/><path class="cls-1" d="M273.76,24.64a6.49,6.49,0,0,0-6.57-5.19c-5.67,0-8.07,4.74-8.07,9.42s2.4,9.42,8.07,9.42c4,0,6.48-3.06,6.87-6.87h2c-.57,5.25-3.9,8.61-8.91,8.61-6.75,0-10.11-5.31-10.11-11.16s3.36-11.16,10.11-11.16c4,0,8.07,2.43,8.61,6.93Z"/><path class="cls-1" d="M292.72,31.84c0,4.44-2.58,8.19-7.32,8.19s-7.32-3.75-7.32-8.19,2.58-8.19,7.32-8.19S292.72,27.4,292.72,31.84Zm-12.75,0c0,3.3,1.8,6.6,5.43,6.6s5.43-3.3,5.43-6.6-1.8-6.6-5.43-6.6S280,28.54,280,31.84Z"/><path class="cls-1" d="M295.58,18.16h1.89V39.58h-1.89Z"/><path class="cls-1" d="M315,31.84c0,4.44-2.58,8.19-7.32,8.19s-7.32-3.75-7.32-8.19,2.58-8.19,7.32-8.19S315,27.4,315,31.84Zm-12.75,0c0,3.3,1.8,6.6,5.43,6.6s5.43-3.3,5.43-6.6-1.8-6.6-5.43-6.6S302.2,28.54,302.2,31.84Z"/><path class="cls-1" d="M317.77,24.1h1.74v3.63h.06a5.72,5.72,0,0,1,5.85-3.84v1.89a5.33,5.33,0,0,0-5.76,5.55v8.25h-1.89Z"/><path class="cls-1" d="M327,28.84c.18-3.63,2.73-5.19,6.27-5.19,2.73,0,5.7.84,5.7,5v8.22A1,1,0,0,0,340.12,38a1.79,1.79,0,0,0,.6-.12v1.59a5.19,5.19,0,0,1-1.23.12c-1.92,0-2.22-1.08-2.22-2.7h-.06A5.9,5.9,0,0,1,331.57,40c-2.85,0-5.19-1.41-5.19-4.53,0-4.35,4.23-4.5,8.31-5,1.56-.18,2.43-.39,2.43-2.1,0-2.55-1.83-3.18-4-3.18s-4.08,1.08-4.14,3.6Zm10.08,2.28h-.06c-.24.45-1.08.6-1.59.69-3.21.57-7.2.54-7.2,3.57a3.22,3.22,0,0,0,3.45,3.06c2.88,0,5.43-1.83,5.4-4.86Z"/><path class="cls-1" d="M356.41,39.58h-1.74V36.64h-.06A6.13,6.13,0,0,1,349.09,40c-4.71,0-7-3.81-7-8.19s2.25-8.19,7-8.19A5.52,5.52,0,0,1,354.46,27h.06V18.16h1.89Zm-7.32-1.14c4,0,5.43-3.39,5.43-6.6s-1.41-6.6-5.43-6.6c-3.6,0-5.07,3.39-5.07,6.6S345.49,38.44,349.09,38.44Z"/><path class="cls-1" d="M373.87,31.84c0,4.44-2.58,8.19-7.32,8.19s-7.32-3.75-7.32-8.19,2.58-8.19,7.32-8.19S373.87,27.4,373.87,31.84Zm-12.75,0c0,3.3,1.8,6.6,5.43,6.6s5.43-3.3,5.43-6.6-1.8-6.6-5.43-6.6S361.12,28.54,361.12,31.84Z"/><line class="cls-2" x1="130.33" y1="52.28" x2="130.33" y2="63.12"/><line class="cls-2" x1="214.8" y1="52.54" x2="214.8" y2="63.37"/><line class="cls-2" x1="253.93" y1="52.28" x2="253.93" y2="63.12"/><path class="cls-1" d="M92.9,54.16h2.33a3.86,3.86,0,0,1,1.7.23,1.52,1.52,0,0,1,.76,1.34,1.48,1.48,0,0,1-1,1.44v0A1.47,1.47,0,0,1,98,58.74a1.83,1.83,0,0,1-2,1.85H92.9Zm.86,2.76h1.71c1,0,1.37-.35,1.37-1,0-.89-.63-1-1.37-1H93.76Zm0,2.94H95.9a1.1,1.1,0,0,0,1.21-1.15c0-.84-.67-1.07-1.4-1.07h-2Z"/><path class="cls-1" d="M101.31,55.83a2.44,2.44,0,1,1-2.26,2.44A2.21,2.21,0,0,1,101.31,55.83Zm0,4.2c.8,0,1.45-.63,1.45-1.75s-.65-1.76-1.45-1.76-1.45.63-1.45,1.76S100.51,60,101.31,60Z"/><path class="cls-1" d="M108.68,60.59H108v-.74h0a1.62,1.62,0,0,1-1.51.85c-1.22,0-1.6-.7-1.6-1.7V55.93h.77v3.15a.88.88,0,0,0,.95.94,1.31,1.31,0,0,0,1.38-1.46V55.93h.77Z"/><path class="cls-1" d="M110.24,54.16H111v6.43h-.77Z"/><path class="cls-1" d="M116.71,60.59h-.77V60h0a1.57,1.57,0,0,1-1.49.74,2.18,2.18,0,0,1-2.14-2.45,2.15,2.15,0,0,1,2.12-2.42,1.78,1.78,0,0,1,1.5.73h0V54.16h.77ZM114.55,60c1,0,1.42-.88,1.42-1.75s-.41-1.76-1.47-1.76-1.4.89-1.4,1.8S113.56,60,114.55,60Z"/><path class="cls-1" d="M122.22,59.11a1.88,1.88,0,0,1-2,1.58c-1.49,0-2.19-1-2.23-2.45a2.24,2.24,0,0,1,2.19-2.42c1.65,0,2.15,1.54,2.11,2.66h-3.48A1.37,1.37,0,0,0,120.26,60a1.12,1.12,0,0,0,1.21-.91Zm-.74-1.3a1.34,1.34,0,0,0-1.34-1.31,1.33,1.33,0,0,0-1.33,1.31Z"/><path class="cls-1" d="M123.41,55.93h.72v1h0a1.69,1.69,0,0,1,1.71-1.09v.81c-1.23,0-1.68.7-1.68,1.88v2.07h-.77Z"/><path class="cls-1" d="M140,56.1a1.69,1.69,0,0,0-1.8-1.37c-1.53,0-2.18,1.26-2.18,2.6s.65,2.69,2.19,2.69a1.82,1.82,0,0,0,1.85-1.85h.85a2.62,2.62,0,0,1-2.78,2.58c-2,0-3-1.48-3-3.35s1.06-3.38,3-3.38a2.46,2.46,0,0,1,2.65,2.09Z"/><path class="cls-1" d="M144.24,55.83A2.44,2.44,0,1,1,142,58.27,2.21,2.21,0,0,1,144.24,55.83Zm0,4.2c.8,0,1.45-.63,1.45-1.75s-.65-1.76-1.45-1.76-1.45.63-1.45,1.76S143.44,60,144.24,60Z"/><path class="cls-1" d="M147.8,54.16h.77v6.43h-.77Z"/><path class="cls-1" d="M152.12,55.83a2.44,2.44,0,1,1-2.26,2.44A2.21,2.21,0,0,1,152.12,55.83Zm0,4.2c.8,0,1.45-.63,1.45-1.75s-.65-1.76-1.45-1.76-1.45.63-1.45,1.76S151.32,60,152.12,60Z"/><path class="cls-1" d="M155.62,55.93h.72v1h0a1.69,1.69,0,0,1,1.71-1.09v.81c-1.23,0-1.68.7-1.68,1.88v2.07h-.77Z"/><path class="cls-1" d="M163.11,60.57a1,1,0,0,1-.55.13c-.4,0-.65-.22-.65-.72a2.07,2.07,0,0,1-1.64.72c-.85,0-1.54-.38-1.54-1.31s.78-1.28,1.58-1.43,1.57-.11,1.57-.68-.55-.77-1-.77c-.65,0-1.13.2-1.16.88h-.77c0-1.15.94-1.56,2-1.56.84,0,1.75.19,1.75,1.28v2.4c0,.36,0,.52.24.52a.65.65,0,0,0,.23,0Zm-1.24-2.39a3.94,3.94,0,0,1-1.39.31c-.5.09-.94.27-.94.84s.43.68.9.68c1,0,1.42-.63,1.42-1.05Z"/><path class="cls-1" d="M168.34,60.59h-.77V60h0a1.57,1.57,0,0,1-1.49.74,2.18,2.18,0,0,1-2.14-2.45,2.15,2.15,0,0,1,2.12-2.42,1.78,1.78,0,0,1,1.5.73h0V54.16h.77ZM166.18,60c1,0,1.42-.88,1.42-1.75s-.41-1.76-1.47-1.76-1.4.89-1.4,1.8S165.19,60,166.18,60Z"/><path class="cls-1" d="M171.89,55.83a2.44,2.44,0,1,1-2.26,2.44A2.21,2.21,0,0,1,171.89,55.83Zm0,4.2c.8,0,1.45-.63,1.45-1.75s-.65-1.76-1.45-1.76-1.45.63-1.45,1.76S171.09,60,171.89,60Z"/><path class="cls-1" d="M182.1,56a1.4,1.4,0,0,0-1.59-1.31c-.72,0-1.44.26-1.44,1.1s1,.91,2.06,1.14,2.05.59,2.05,1.85-1.34,1.92-2.51,1.92c-1.44,0-2.66-.7-2.66-2.27h.81c0,1.08.9,1.55,1.87,1.55.77,0,1.63-.24,1.63-1.17s-1-1-2.05-1.26-2.06-.52-2.06-1.7S179.37,54,180.55,54a2.07,2.07,0,0,1,2.37,2Z"/><path class="cls-1" d="M184.48,55.93h.77v.63h0a1.57,1.57,0,0,1,1.49-.74,2.18,2.18,0,0,1,2.14,2.45,2.15,2.15,0,0,1-2.12,2.42,1.78,1.78,0,0,1-1.5-.73h0v2.4h-.77Zm2.16.57c-1,0-1.42.88-1.42,1.75s.41,1.76,1.47,1.76,1.4-.89,1.4-1.8S187.63,56.5,186.64,56.5Z"/><path class="cls-1" d="M190.12,55.93h.72v1h0a1.69,1.69,0,0,1,1.71-1.09v.81c-1.23,0-1.68.7-1.68,1.88v2.07h-.76Z"/><path class="cls-1" d="M194.31,55.1h-.77v-.94h.77Zm-.77.84h.77v4.65h-.77Z"/><path class="cls-1" d="M195.85,55.93h.72v.74h0a1.62,1.62,0,0,1,1.51-.85c1.22,0,1.6.7,1.6,1.7v3.06h-.77V57.44a.88.88,0,0,0-.95-.94A1.31,1.31,0,0,0,196.62,58v2.63h-.76Z"/><path class="cls-1" d="M205.23,60.19c0,1.51-.69,2.29-2.16,2.29-.87,0-1.88-.35-1.93-1.37h.77c0,.56.7.76,1.21.76,1,0,1.4-.72,1.4-1.76V59.8h0a1.55,1.55,0,0,1-1.45.85A2.11,2.11,0,0,1,201,58.28a2.2,2.2,0,0,1,2.15-2.46,1.52,1.52,0,0,1,1.39.77h0v-.67h.72Zm-.76-2c0-.82-.36-1.67-1.32-1.67s-1.38.8-1.38,1.69.31,1.77,1.31,1.77S204.48,59,204.48,58.17Z"/><path class="cls-1" d="M207.21,59.12c0,.68.62.9,1.25.9.48,0,1.13-.11,1.13-.69s-.76-.69-1.52-.86-1.52-.42-1.52-1.31.93-1.32,1.74-1.32c1,0,1.85.32,1.91,1.46h-.77c-.05-.59-.58-.78-1.08-.78s-1,.13-1,.59.81.64,1.52.81,1.52.42,1.52,1.32c0,1.11-1,1.47-2,1.47s-1.93-.42-2-1.58Z"/><path class="cls-1" d="M220.3,54.16h2.21c2,0,3.09,1,3.09,3.06s-.95,3.37-3.09,3.37H220.3Zm.86,5.71h1.42c.59,0,2.16-.16,2.16-2.53,0-1.53-.57-2.46-2.14-2.46h-1.44Z"/><path class="cls-1" d="M230.84,59.11a1.88,1.88,0,0,1-2,1.58c-1.49,0-2.19-1-2.23-2.45a2.24,2.24,0,0,1,2.19-2.42c1.65,0,2.15,1.54,2.11,2.66h-3.48A1.37,1.37,0,0,0,228.87,60a1.12,1.12,0,0,0,1.21-.91Zm-.74-1.3a1.34,1.34,0,0,0-1.34-1.31,1.32,1.32,0,0,0-1.33,1.31Z"/><path class="cls-1" d="M232.06,55.93h.72v.74h0a1.62,1.62,0,0,1,1.51-.85c1.22,0,1.6.7,1.6,1.7v3.06h-.77V57.44a.88.88,0,0,0-.95-.94A1.31,1.31,0,0,0,232.83,58v2.63h-.77Z"/><path class="cls-1" d="M239.51,60.59h-.82L237,55.93h.86l1.31,3.88h0l1.27-3.88h.8Z"/><path class="cls-1" d="M246.25,59.11a1.88,1.88,0,0,1-2,1.58c-1.49,0-2.19-1-2.23-2.45a2.24,2.24,0,0,1,2.19-2.42c1.65,0,2.15,1.54,2.11,2.66h-3.48A1.37,1.37,0,0,0,244.28,60a1.12,1.12,0,0,0,1.21-.91Zm-.74-1.3a1.34,1.34,0,0,0-1.34-1.31,1.32,1.32,0,0,0-1.33,1.31Z"/><path class="cls-1" d="M247.44,55.93h.72v1h0a1.69,1.69,0,0,1,1.71-1.09v.81c-1.23,0-1.68.7-1.68,1.88v2.07h-.77Z"/><path class="cls-1" d="M261.27,54.16h.95l2.51,6.43h-.94l-.7-1.94h-2.72l-.72,1.94h-.88Zm-.64,3.77h2.18l-1.07-3h0Z"/><path class="cls-1" d="M265.59,55.93h.72v.74h0a1.62,1.62,0,0,1,1.51-.85c1.22,0,1.6.7,1.6,1.7v3.06h-.77V57.44a.88.88,0,0,0-.95-.94A1.31,1.31,0,0,0,266.36,58v2.63h-.77Z"/><path class="cls-1" d="M271.42,59.12c0,.68.62.9,1.25.9.48,0,1.12-.11,1.12-.69s-.76-.69-1.52-.86-1.52-.42-1.52-1.31.93-1.32,1.74-1.32c1,0,1.85.32,1.91,1.46h-.77c-.05-.59-.58-.78-1.08-.78s-1,.13-1,.59.81.64,1.52.81,1.52.42,1.52,1.32c0,1.11-1,1.47-2,1.47s-1.93-.42-2-1.58Z"/><path class="cls-1" d="M279,57.43a1.08,1.08,0,0,0-1.15-.93c-1.11,0-1.45.87-1.45,1.82s.39,1.7,1.36,1.7A1.2,1.2,0,0,0,279,58.89h.78a1.94,1.94,0,0,1-2.05,1.81,2.12,2.12,0,0,1-2.18-2.38,2.19,2.19,0,0,1,2.2-2.49,1.78,1.78,0,0,1,2,1.6Z"/><path class="cls-1" d="M281,54.16h.77v2.46h0a1.58,1.58,0,0,1,1.47-.79c1.22,0,1.6.7,1.6,1.7v3.06h-.77V57.44a.88.88,0,0,0-.95-.94A1.31,1.31,0,0,0,281.77,58v2.63H281Z"/><path class="cls-1" d="M290.22,60.59h-.72v-.74h0a1.62,1.62,0,0,1-1.51.85c-1.22,0-1.6-.7-1.6-1.7V55.93h.77v3.15a.88.88,0,0,0,.95.94,1.31,1.31,0,0,0,1.38-1.46V55.93h.77Z"/><path class="cls-1" d="M292.79,55.93h.93v.67h-.93V59.5c0,.35.1.41.58.41h.35v.67h-.58c-.79,0-1.11-.16-1.11-1v-3h-.79v-.67H292v-1.4h.77Z"/><path class="cls-1" d="M294.55,60l2.81-3.39h-2.63v-.67h3.62v.52l-2.84,3.46h3v.67h-3.92Z"/><path class="cls-1" d="M302.6,54.16h1.17l2,5.4,2-5.4H309v6.43h-.81V55.24h0l-2,5.35h-.73l-2-5.35h0v5.35h-.81Z"/><path class="cls-1" d="M314.63,59.11a1.88,1.88,0,0,1-2,1.58c-1.49,0-2.19-1-2.23-2.45a2.24,2.24,0,0,1,2.19-2.42c1.65,0,2.15,1.54,2.11,2.66h-3.48A1.37,1.37,0,0,0,312.66,60a1.12,1.12,0,0,0,1.21-.91Zm-.74-1.3a1.34,1.34,0,0,0-1.34-1.31,1.32,1.32,0,0,0-1.33,1.31Z"/><path class="cls-1" d="M320,60.59h-.77V60h0a1.57,1.57,0,0,1-1.49.74,2.18,2.18,0,0,1-2.14-2.45,2.15,2.15,0,0,1,2.12-2.42,1.78,1.78,0,0,1,1.5.73h0V54.16H320ZM317.85,60c1,0,1.42-.88,1.42-1.75s-.41-1.76-1.47-1.76-1.39.89-1.39,1.8S316.86,60,317.85,60Z"/><path class="cls-1" d="M322.36,55.1h-.77v-.94h.77Zm-.77.84h.77v4.65h-.77Z"/><path class="cls-1" d="M327.06,57.43a1.08,1.08,0,0,0-1.15-.93c-1.11,0-1.45.87-1.45,1.82s.39,1.7,1.36,1.7a1.2,1.2,0,0,0,1.28-1.13h.78a1.93,1.93,0,0,1-2.05,1.81,2.12,2.12,0,0,1-2.18-2.38,2.19,2.19,0,0,1,2.2-2.49,1.78,1.78,0,0,1,2,1.6Z"/><path class="cls-1" d="M333.22,60.57a1,1,0,0,1-.55.13c-.4,0-.65-.22-.65-.72a2.07,2.07,0,0,1-1.64.72c-.85,0-1.54-.38-1.54-1.31s.78-1.28,1.58-1.43,1.57-.11,1.57-.68-.55-.77-1-.77c-.65,0-1.12.2-1.16.88H329c0-1.15.94-1.56,2-1.56.84,0,1.75.19,1.75,1.28v2.4c0,.36,0,.52.24.52a.65.65,0,0,0,.23,0ZM332,58.18a3.94,3.94,0,0,1-1.39.31c-.5.09-.94.27-.94.84s.43.68.9.68c1,0,1.42-.63,1.42-1.05Z"/><path class="cls-1" d="M334.33,54.16h.77v6.43h-.77Z"/><path class="cls-1" d="M344.16,56.1a1.69,1.69,0,0,0-1.8-1.37c-1.53,0-2.18,1.26-2.18,2.6s.65,2.69,2.19,2.69a1.82,1.82,0,0,0,1.85-1.85h.86a2.62,2.62,0,0,1-2.78,2.58c-2,0-3-1.48-3-3.35s1.06-3.38,3-3.38A2.46,2.46,0,0,1,345,56.1Z"/><path class="cls-1" d="M350.49,60.57a1,1,0,0,1-.55.13c-.4,0-.65-.22-.65-.72a2.07,2.07,0,0,1-1.64.72c-.85,0-1.54-.38-1.54-1.31s.78-1.28,1.58-1.43,1.57-.11,1.57-.68-.55-.77-1-.77c-.65,0-1.12.2-1.16.88h-.77c0-1.15.94-1.56,2-1.56.84,0,1.75.19,1.75,1.28v2.4c0,.36,0,.52.24.52a.65.65,0,0,0,.23,0Zm-1.24-2.39a3.94,3.94,0,0,1-1.39.31c-.5.09-.94.27-.94.84s.43.68.9.68c1,0,1.42-.63,1.42-1.05Z"/><path class="cls-1" d="M351.56,55.93h.72v.68h0a1.72,1.72,0,0,1,1.5-.79,1.24,1.24,0,0,1,1.28.79,1.72,1.72,0,0,1,1.46-.79c.93,0,1.55.39,1.55,1.35v3.41h-.77V57.54c0-.58-.15-1-.9-1a1.13,1.13,0,0,0-1.21,1.19v2.9h-.77V57.54c0-.6-.19-1-.87-1a1.25,1.25,0,0,0-1.24,1.19v2.9h-.77Z"/><path class="cls-1" d="M359.62,55.93h.76v.63h0a1.57,1.57,0,0,1,1.49-.74A2.18,2.18,0,0,1,364,58.27a2.15,2.15,0,0,1-2.12,2.42,1.78,1.78,0,0,1-1.5-.73h0v2.4h-.76Zm2.16.57c-1,0-1.42.88-1.42,1.75s.41,1.76,1.47,1.76,1.4-.89,1.4-1.8S362.78,56.5,361.79,56.5Z"/><path class="cls-1" d="M369.15,60.59h-.72v-.74h0a1.62,1.62,0,0,1-1.51.85c-1.22,0-1.6-.7-1.6-1.7V55.93h.77v3.15A.88.88,0,0,0,367,60a1.31,1.31,0,0,0,1.38-1.46V55.93h.77Z"/><path class="cls-1" d="M371.12,59.12c0,.68.62.9,1.25.9.48,0,1.13-.11,1.13-.69s-.76-.69-1.52-.86-1.52-.42-1.52-1.31.93-1.32,1.74-1.32c1,0,1.85.32,1.91,1.46h-.77c-.05-.59-.58-.78-1.08-.78s-1,.13-1,.59.81.64,1.52.81,1.52.42,1.52,1.32c0,1.11-1,1.47-2,1.47s-1.93-.42-2-1.58Z"/><polygon class="cls-3" points="9.83 0 0 9.82 0 43.71 9.83 53.52 20.61 53.52 20.61 61.77 30.52 71.59 59.17 71.59 69.1 61.77 69.1 35.52 74.16 35.52 74.16 18.04 53.58 18.04 53.58 9.82 43.78 0 9.83 0"/><polygon class="cls-1" points="43.36 1.02 52.56 10.24 52.56 19.06 73.14 19.06 73.14 34.51 68.08 34.51 68.08 61.35 58.75 70.57 30.94 70.57 21.63 61.35 21.63 52.5 10.25 52.5 1.02 43.28 1.02 10.24 10.25 1.02 43.36 1.02"/><polygon class="cls-4" points="11.3 49.95 24.18 49.95 24.18 60.28 31.98 68.02 57.7 68.02 65.53 60.28 65.53 31.96 70.6 31.96 70.6 21.61 55.07 21.61 55.07 57.68 34.52 57.68 34.52 49.95 42.3 49.95 50.02 42.23 50.02 31.96 39.67 31.96 39.67 39.63 34.52 39.63 34.52 21.61 19.04 21.61 19.04 31.96 24.18 31.96 24.18 39.63 13.89 39.63 13.89 13.81 39.67 13.81 39.67 21.61 50.02 21.61 50.02 11.3 42.3 3.56 11.3 3.56 3.56 11.29 3.56 42.23 11.3 49.95"/><polygon class="cls-3" points="33.25 48.68 41.77 48.68 48.74 41.7 48.74 33.23 40.94 33.23 40.94 40.9 33.25 40.9 33.25 22.88 20.32 22.88 20.32 30.69 25.45 30.69 25.45 40.9 12.62 40.9 12.62 12.54 40.94 12.54 40.94 20.34 48.74 20.34 48.74 11.82 41.77 4.84 11.83 4.84 4.83 11.82 4.83 41.7 11.83 48.68 25.45 48.68 25.45 59.75 32.51 66.75 57.18 66.75 64.26 59.75 64.26 30.69 69.32 30.69 69.32 22.88 56.34 22.88 56.34 58.95 33.25 58.95 33.25 48.68"/></svg>