<?xml version="1.0" encoding="utf-8"?>
<!-- Generator: Adobe Illustrator 27.6.1, SVG Export Plug-In . SVG Version: 6.00 Build 0)  -->
<svg version="1.1" id="Layer_1_copy" xmlns="http://www.w3.org/2000/svg" xmlns:xlink="http://www.w3.org/1999/xlink" x="0px"
	 y="0px" viewBox="0 0 374.3 72" style="enable-background:new 0 0 374.3 72;" xml:space="preserve">
<style type="text/css">
	.st0{fill:#FFFFFF;}
	.st1{fill:none;stroke:#FFFFFF;}
	.st2{fill:#CFB87C;}
	.st3{fill:#231F20;}
</style>
<path class="st0" d="M92.9,18.2h2v13.3c0,5,2.3,6.9,6.3,6.9s6.3-1.9,6.3-6.9V18.2h2v13.7c0,4.4-2.4,8.2-8.3,8.2s-8.3-3.8-8.3-8.2
	L92.9,18.2z"/>
<path class="st0" d="M113.3,24.1h1.9v2.7h0.1c0.9-1.9,2.8-3.2,4.9-3.1c4.3,0,5.7,2.3,5.7,6v10h-1.9v-9.7c0-2.7-0.9-4.7-3.9-4.7
	s-4.8,2.3-4.9,5.3v9h-1.9L113.3,24.1z"/>
<path class="st0" d="M129.4,18.2h1.9v3h-1.9V18.2z M129.4,24.1h1.9v15.5h-1.9V24.1z"/>
<path class="st0" d="M133.2,24.1h2.1l4.9,13.6h0.1l4.8-13.6h2l-5.8,15.5h-2L133.2,24.1z"/>
<path class="st0" d="M150,32.3c0,2.8,1.5,6.1,5.1,6.1c2.8,0,4.3-1.6,4.9-4h1.9C161,38,159,40,155.1,40c-4.9,0-7-3.8-7-8.2
	c0-4.1,2.1-8.2,7-8.2s7,4.4,6.8,8.7L150,32.3z M160,30.8c-0.1-2.9-1.9-5.5-4.9-5.5s-4.8,2.7-5.1,5.5H160z"/>
<path class="st0" d="M164.4,24.1h1.7v3.6h0.1c0.8-2.5,3.3-4,5.9-3.8v1.9c-2.9-0.2-5.5,1.9-5.7,4.9c0,0.2,0,0.4,0,0.7v8.2h-1.9
	L164.4,24.1z"/>
<path class="st0" d="M183.1,28.6c-0.1-2.3-1.9-3.4-4-3.4c-1.7,0-3.7,0.7-3.7,2.7c0,1.7,1.9,2.3,3.2,2.6l2.5,0.6
	c2.2,0.3,4.4,1.6,4.4,4.3c0,3.4-3.3,4.7-6.2,4.7c-3.6,0-6.1-1.7-6.4-5.5h1.9c0.1,2.5,2,3.9,4.6,3.9c1.8,0,4.2-0.8,4.2-2.9
	c0-1.8-1.7-2.4-3.4-2.8l-2.4-0.5c-2.5-0.7-4.3-1.5-4.3-4.1c0-3.1,3.1-4.4,5.8-4.4c3.1,0,5.6,1.6,5.7,5L183.1,28.6z"/>
<path class="st0" d="M188.3,18.2h1.9v3h-1.9V18.2z M188.3,24.1h1.9v15.5h-1.9V24.1z"/>
<path class="st0" d="M196.9,24.1h3.1v1.6h-3.1v10.4c0,1.2,0.2,2,1.5,2c0.5,0,1.1,0,1.6-0.1v1.7c-0.6,0-1.1,0.1-1.7,0.1
	c-2.5,0-3.4-0.8-3.4-3.5V25.7h-2.7v-1.6h2.7v-4.6h1.9L196.9,24.1z"/>
<path class="st0" d="M201,24.1h2l5.1,13.2l4.8-13.2h1.9L208,42c-1.1,2.6-1.7,3.4-4.1,3.4c-0.5,0-1,0-1.4-0.2v-1.6
	c0.4,0.1,0.9,0.1,1.3,0.2c1.7,0,2.1-1,2.7-2.4l0.7-1.8L201,24.1z"/>
<path class="st0" d="M238.8,31.8c0,4.4-2.6,8.2-7.3,8.2s-7.3-3.8-7.3-8.2s2.6-8.2,7.3-8.2S238.8,27.4,238.8,31.8z M226.1,31.8
	c0,3.3,1.8,6.6,5.4,6.6s5.4-3.3,5.4-6.6s-1.8-6.6-5.4-6.6S226.1,28.5,226.1,31.8L226.1,31.8z"/>
<path class="st0" d="M247.6,25.7h-3.1v13.9h-1.9V25.7H240v-1.6h2.6v-1.4c0-2.7,0.7-4.5,3.8-4.5c0.5,0,1.1,0,1.6,0.1v1.6
	c-0.5-0.1-0.9-0.1-1.4-0.1c-2.1,0-2,1.3-2.1,3v1.4h3.1L247.6,25.7z"/>
<path class="st0" d="M273.8,24.6c-0.6-3.1-3.4-5.3-6.6-5.2c-5.7,0-8.1,4.7-8.1,9.4s2.4,9.4,8.1,9.4c4,0,6.5-3.1,6.9-6.9h2
	c-0.6,5.2-3.9,8.6-8.9,8.6c-6.8,0-10.1-5.3-10.1-11.2s3.4-11.2,10.1-11.2c4,0,8.1,2.4,8.6,6.9L273.8,24.6z"/>
<path class="st0" d="M292.7,31.8c0,4.4-2.6,8.2-7.3,8.2s-7.3-3.8-7.3-8.2s2.6-8.2,7.3-8.2S292.7,27.4,292.7,31.8z M280,31.8
	c0,3.3,1.8,6.6,5.4,6.6s5.4-3.3,5.4-6.6s-1.8-6.6-5.4-6.6S280,28.5,280,31.8L280,31.8z"/>
<path class="st0" d="M295.6,18.2h1.9v21.4h-1.9V18.2z"/>
<path class="st0" d="M315,31.8c0,4.4-2.6,8.2-7.3,8.2s-7.3-3.8-7.3-8.2s2.6-8.2,7.3-8.2S315,27.4,315,31.8z M302.2,31.8
	c0,3.3,1.8,6.6,5.4,6.6s5.4-3.3,5.4-6.6s-1.8-6.6-5.4-6.6S302.2,28.5,302.2,31.8L302.2,31.8z"/>
<path class="st0" d="M317.8,24.1h1.7v3.6h0.1c0.8-2.5,3.3-4,5.9-3.8v1.9c-2.9-0.2-5.5,1.9-5.7,4.9c0,0.2,0,0.4,0,0.7v8.2h-1.9
	L317.8,24.1z"/>
<path class="st0" d="M327,28.8c0.2-3.6,2.7-5.2,6.3-5.2c2.7,0,5.7,0.8,5.7,5v8.2c-0.1,0.5,0.3,1.1,0.8,1.1c0.1,0,0.2,0,0.3,0
	c0.2,0,0.4,0,0.6-0.1v1.6c-0.4,0.1-0.8,0.1-1.2,0.1c-1.9,0-2.2-1.1-2.2-2.7h-0.1c-1.1,2.1-3.3,3.3-5.6,3.1c-2.9,0-5.2-1.4-5.2-4.5
	c0-4.4,4.2-4.5,8.3-5c1.6-0.2,2.4-0.4,2.4-2.1c0-2.5-1.8-3.2-4-3.2s-4.1,1.1-4.1,3.6L327,28.8z M337.1,31.1L337.1,31.1
	c-0.3,0.5-1.1,0.6-1.6,0.7c-3.2,0.6-7.2,0.5-7.2,3.6c0.1,1.8,1.6,3.1,3.4,3.1c0,0,0.1,0,0.1,0c2.9,0,5.4-1.8,5.4-4.9V31.1z"/>
<path class="st0" d="M356.4,39.6h-1.7v-2.9h-0.1c-1.1,2.1-3.2,3.4-5.5,3.4c-4.7,0-7-3.8-7-8.2s2.2-8.2,7-8.2
	c2.3-0.1,4.5,1.2,5.4,3.4h0.1v-8.8h1.9V39.6z M349.1,38.4c4,0,5.4-3.4,5.4-6.6s-1.4-6.6-5.4-6.6c-3.6,0-5.1,3.4-5.1,6.6
	S345.5,38.4,349.1,38.4z"/>
<path class="st0" d="M373.9,31.8c0,4.4-2.6,8.2-7.3,8.2s-7.3-3.8-7.3-8.2s2.6-8.2,7.3-8.2S373.9,27.4,373.9,31.8z M361.1,31.8
	c0,3.3,1.8,6.6,5.4,6.6s5.4-3.3,5.4-6.6s-1.8-6.6-5.4-6.6S361.1,28.5,361.1,31.8z"/>
<line class="st1" x1="130.3" y1="52.3" x2="130.3" y2="63.1"/>
<line class="st1" x1="214.8" y1="52.5" x2="214.8" y2="63.4"/>
<line class="st1" x1="253.9" y1="52.3" x2="253.9" y2="63.1"/>
<path class="st0" d="M92.9,54.2h2.3c0.6-0.1,1.2,0,1.7,0.2c0.5,0.3,0.8,0.8,0.8,1.3c0,0.6-0.4,1.2-1,1.4l0,0
	c0.8,0.1,1.4,0.8,1.3,1.6c0,1-0.8,1.8-1.8,1.9c-0.1,0-0.1,0-0.2,0h-3.1V54.2z M93.8,56.9h1.7c1,0,1.4-0.3,1.4-1c0-0.9-0.6-1-1.4-1
	h-1.7V56.9z M93.8,59.9h2.1c0.6,0.1,1.1-0.4,1.2-1c0-0.1,0-0.1,0-0.2c0-0.8-0.7-1.1-1.4-1.1h-2L93.8,59.9z"/>
<path class="st0" d="M101.3,55.8c1.3-0.1,2.5,0.9,2.6,2.3s-0.9,2.5-2.3,2.6c-1.3,0.1-2.5-0.9-2.6-2.3c0-0.1,0-0.1,0-0.2
	c-0.1-1.2,0.8-2.3,2-2.4C101.1,55.8,101.2,55.8,101.3,55.8z M101.3,60c0.8,0,1.4-0.6,1.4-1.8s-0.7-1.8-1.4-1.8s-1.4,0.6-1.4,1.8
	S100.5,60,101.3,60L101.3,60z"/>
<path class="st0" d="M108.7,60.6H108v-0.7l0,0c-0.3,0.6-0.9,0.9-1.5,0.8c-1.2,0-1.6-0.7-1.6-1.7v-3.1h0.8v3.2c0,0.5,0.3,0.9,0.8,0.9
	c0,0,0.1,0,0.1,0c0.7,0,1.3-0.5,1.4-1.2c0-0.1,0-0.2,0-0.2v-2.6h0.8L108.7,60.6z"/>
<path class="st0" d="M110.2,54.2h0.8v6.4h-0.8L110.2,54.2z"/>
<path class="st0" d="M116.7,60.6h-0.8V60l0,0c-0.3,0.5-0.9,0.8-1.5,0.7c-1.2,0-2.2-1-2.2-2.2c0-0.1,0-0.2,0-0.2
	c-0.1-1.2,0.7-2.3,1.9-2.4c0.1,0,0.2,0,0.3,0c0.6,0,1.2,0.3,1.5,0.7l0,0v-2.4h0.8L116.7,60.6z M114.6,60c1,0,1.4-0.9,1.4-1.8
	s-0.4-1.8-1.5-1.8s-1.4,0.9-1.4,1.8S113.6,60,114.6,60z"/>
<path class="st0" d="M122.2,59.1c-0.2,1-1,1.7-2,1.6c-1.5,0-2.2-1-2.2-2.5c-0.1-1.2,0.8-2.3,2.1-2.4c0,0,0.1,0,0.1,0
	c1.7,0,2.2,1.5,2.1,2.7h-3.5c-0.1,0.8,0.5,1.4,1.2,1.5c0.1,0,0.2,0,0.2,0c0.6,0.1,1.1-0.3,1.2-0.9L122.2,59.1z M121.5,57.8
	c0-0.7-0.6-1.3-1.3-1.3c-0.7,0-1.3,0.6-1.3,1.3H121.5z"/>
<path class="st0" d="M123.4,55.9h0.7v1l0,0c0.3-0.7,1-1.1,1.7-1.1v0.8c-1.2,0-1.7,0.7-1.7,1.9v2.1h-0.8L123.4,55.9z"/>
<path class="st0" d="M140,56.1c-0.2-0.9-0.9-1.4-1.8-1.4c-1.5,0-2.2,1.3-2.2,2.6s0.6,2.7,2.2,2.7c1,0,1.8-0.8,1.9-1.8c0,0,0,0,0-0.1
	h0.9c0,1.4-1.2,2.6-2.7,2.6c0,0-0.1,0-0.1,0c-2,0-3-1.5-3-3.3s1.1-3.4,3-3.4c1.3-0.1,2.5,0.8,2.6,2.1L140,56.1z"/>
<path class="st0" d="M144.2,55.8c1.3-0.1,2.5,0.9,2.6,2.2s-0.9,2.5-2.2,2.6c-1.3,0.1-2.5-0.9-2.6-2.2c0-0.1,0-0.1,0-0.2
	c-0.1-1.2,0.8-2.3,2-2.4C144.1,55.8,144.1,55.8,144.2,55.8z M144.2,60c0.8,0,1.4-0.6,1.4-1.8s-0.6-1.8-1.4-1.8s-1.4,0.6-1.4,1.8
	S143.4,60,144.2,60L144.2,60z"/>
<path class="st0" d="M147.8,54.2h0.8v6.4h-0.8V54.2z"/>
<path class="st0" d="M152.1,55.8c1.3-0.1,2.5,0.9,2.6,2.3c0.1,1.3-0.9,2.5-2.3,2.6c-1.3,0.1-2.5-0.9-2.6-2.3c0-0.1,0-0.1,0-0.2
	c-0.1-1.2,0.8-2.3,2-2.4C151.9,55.8,152,55.8,152.1,55.8z M152.1,60c0.8,0,1.4-0.6,1.4-1.8s-0.6-1.8-1.4-1.8s-1.4,0.6-1.4,1.8
	S151.3,60,152.1,60L152.1,60z"/>
<path class="st0" d="M155.6,55.9h0.7v1l0,0c0.3-0.7,1-1.1,1.7-1.1v0.8c-1.2,0-1.7,0.7-1.7,1.9v2.1h-0.8L155.6,55.9z"/>
<path class="st0" d="M163.1,60.6c-0.2,0.1-0.4,0.1-0.6,0.1c-0.4,0-0.6-0.2-0.6-0.7c-0.4,0.5-1,0.7-1.6,0.7c-0.9,0-1.5-0.4-1.5-1.3
	s0.8-1.3,1.6-1.4s1.6-0.1,1.6-0.7s-0.6-0.8-1-0.8c-0.6,0-1.1,0.2-1.2,0.9H159c0-1.2,0.9-1.6,2-1.6c0.8,0,1.8,0.2,1.8,1.3v2.4
	c0,0.4,0,0.5,0.2,0.5c0.1,0,0.2,0,0.2,0L163.1,60.6z M161.9,58.2c-0.4,0.2-0.9,0.3-1.4,0.3c-0.5,0.1-0.9,0.3-0.9,0.8
	s0.4,0.7,0.9,0.7c1,0,1.4-0.6,1.4-1L161.9,58.2z"/>
<path class="st0" d="M168.3,60.6h-0.8V60l0,0c-0.3,0.5-0.9,0.8-1.5,0.7c-1.2,0-2.2-1-2.2-2.2c0-0.1,0-0.2,0-0.2
	c-0.1-1.2,0.7-2.3,1.9-2.4c0.1,0,0.2,0,0.3,0c0.6,0,1.2,0.3,1.5,0.7l0,0v-2.4h0.8L168.3,60.6z M166.2,60c1,0,1.4-0.9,1.4-1.8
	s-0.4-1.8-1.5-1.8s-1.4,0.9-1.4,1.8S165.2,60,166.2,60z"/>
<path class="st0" d="M171.9,55.8c1.3-0.1,2.5,0.9,2.6,2.3c0.1,1.3-0.9,2.5-2.3,2.6c-1.3,0.1-2.5-0.9-2.6-2.3c0-0.1,0-0.1,0-0.2
	c-0.1-1.2,0.8-2.3,2-2.4C171.7,55.8,171.8,55.8,171.9,55.8z M171.9,60c0.8,0,1.4-0.6,1.4-1.8s-0.6-1.8-1.4-1.8s-1.4,0.6-1.4,1.8
	S171.1,60,171.9,60L171.9,60z"/>
<path class="st0" d="M182.1,56c0-0.8-0.7-1.4-1.5-1.3c0,0-0.1,0-0.1,0c-0.7,0-1.4,0.3-1.4,1.1s1,0.9,2.1,1.1s2.1,0.6,2.1,1.8
	s-1.3,1.9-2.5,1.9c-1.4,0-2.7-0.7-2.7-2.3h0.8c0,1.1,0.9,1.5,1.9,1.5c0.8,0,1.6-0.2,1.6-1.2s-1-1-2.1-1.3s-2.1-0.5-2.1-1.7
	s1.2-1.8,2.3-1.8c1.1-0.2,2.2,0.6,2.3,1.7c0,0.1,0,0.2,0,0.3H182.1z"/>
<path class="st0" d="M184.5,55.9h0.8v0.6l0,0c0.3-0.5,0.9-0.8,1.5-0.7c1.2,0,2.2,1,2.2,2.2c0,0.1,0,0.2,0,0.2
	c0.1,1.2-0.7,2.3-1.9,2.4c-0.1,0-0.2,0-0.3,0c-0.6,0-1.2-0.3-1.5-0.7l0,0v2.4h-0.8L184.5,55.9z M186.6,56.5c-1,0-1.4,0.9-1.4,1.8
	s0.4,1.8,1.5,1.8s1.4-0.9,1.4-1.8S187.6,56.5,186.6,56.5z"/>
<path class="st0" d="M190.1,55.9h0.7v1l0,0c0.3-0.7,1-1.1,1.7-1.1v0.8c-1.2,0-1.7,0.7-1.7,1.9v2.1h-0.8L190.1,55.9z"/>
<path class="st0" d="M194.3,55.1h-0.8v-0.9h0.8V55.1z M193.5,55.9h0.8v4.7h-0.8V55.9z"/>
<path class="st0" d="M195.9,55.9h0.7v0.7l0,0c0.3-0.6,0.9-0.9,1.5-0.8c1.2,0,1.6,0.7,1.6,1.7v3.1h-0.8v-3.1c0-0.5-0.3-0.9-0.8-0.9
	c0,0-0.1,0-0.1,0c-0.7,0-1.3,0.5-1.4,1.3c0,0.1,0,0.2,0,0.2v2.6h-0.8L195.9,55.9z"/>
<path class="st0" d="M205.2,60.2c0,1.5-0.7,2.3-2.2,2.3c-0.9,0-1.9-0.3-1.9-1.4h0.8c0,0.6,0.7,0.8,1.2,0.8c1,0,1.4-0.7,1.4-1.8v-0.3
	l0,0c-0.3,0.5-0.8,0.9-1.4,0.8c-1.2,0-2.1-1-2.1-2.1c0-0.1,0-0.2,0-0.2c-0.1-1.2,0.7-2.3,1.9-2.4c0.1,0,0.2,0,0.2,0
	c0.6,0,1.1,0.3,1.4,0.8l0,0v-0.7h0.7L205.2,60.2z M204.5,58.2c0-0.8-0.4-1.7-1.3-1.7s-1.4,0.8-1.4,1.7s0.3,1.8,1.3,1.8
	S204.5,59,204.5,58.2L204.5,58.2z"/>
<path class="st0" d="M207.2,59.1c0,0.7,0.6,0.9,1.2,0.9c0.5,0,1.1-0.1,1.1-0.7s-0.8-0.7-1.5-0.9s-1.5-0.4-1.5-1.3s0.9-1.3,1.7-1.3
	c1,0,1.9,0.3,1.9,1.5h-0.8c-0.1-0.6-0.6-0.8-1.1-0.8s-1,0.1-1,0.6s0.8,0.6,1.5,0.8s1.5,0.4,1.5,1.3c0,1.1-1,1.5-2,1.5
	s-1.9-0.4-2-1.6L207.2,59.1z"/>
<path class="st0" d="M220.3,54.2h2.2c2,0,3.1,1,3.1,3.1s-0.9,3.4-3.1,3.4h-2.2V54.2z M221.2,59.9h1.4c0.6,0,2.2-0.2,2.2-2.5
	c0-1.5-0.6-2.5-2.1-2.5h-1.4V59.9z"/>
<path class="st0" d="M230.8,59.1c-0.2,1-1,1.7-2,1.6c-1.5,0-2.2-1-2.2-2.5c-0.1-1.2,0.8-2.3,2.1-2.4c0,0,0.1,0,0.1,0
	c1.6,0,2.1,1.5,2.1,2.7h-3.5c-0.1,0.8,0.5,1.4,1.2,1.5c0.1,0,0.2,0,0.2,0c0.6,0.1,1.1-0.3,1.2-0.9L230.8,59.1z M230.1,57.8
	c0-0.7-0.6-1.3-1.3-1.3c-0.7,0-1.3,0.6-1.3,1.3c0,0,0,0,0,0H230.1z"/>
<path class="st0" d="M232.1,55.9h0.7v0.7l0,0c0.3-0.6,0.9-0.9,1.5-0.8c1.2,0,1.6,0.7,1.6,1.7v3.1h-0.8v-3.1c0-0.5-0.3-0.9-0.8-0.9
	c0,0-0.1,0-0.1,0c-0.7,0-1.3,0.5-1.4,1.3c0,0.1,0,0.2,0,0.2v2.6h-0.8V55.9z"/>
<path class="st0" d="M239.5,60.6h-0.8l-1.7-4.7h0.9l1.3,3.9l0,0l1.3-3.9h0.8L239.5,60.6z"/>
<path class="st0" d="M246.2,59.1c-0.2,1-1,1.7-2,1.6c-1.5,0-2.2-1-2.2-2.5c-0.1-1.2,0.8-2.3,2.1-2.4c0,0,0.1,0,0.1,0
	c1.6,0,2.1,1.5,2.1,2.7h-3.5c-0.1,0.8,0.5,1.4,1.2,1.5c0.1,0,0.2,0,0.2,0c0.6,0.1,1.1-0.3,1.2-0.9L246.2,59.1z M245.5,57.8
	c0-0.7-0.6-1.3-1.3-1.3c-0.7,0-1.3,0.6-1.3,1.3c0,0,0,0,0,0H245.5z"/>
<path class="st0" d="M247.4,55.9h0.7v1l0,0c0.3-0.7,1-1.1,1.7-1.1v0.8c-1.2,0-1.7,0.7-1.7,1.9v2.1h-0.8L247.4,55.9z"/>
<path class="st0" d="M261.3,54.2h1l2.5,6.4h-0.9l-0.7-1.9h-2.7l-0.7,1.9h-0.9L261.3,54.2z M260.6,57.9h2.2l-1.1-3l0,0L260.6,57.9z"
	/>
<path class="st0" d="M265.6,55.9h0.7v0.7l0,0c0.3-0.6,0.9-0.9,1.5-0.8c1.2,0,1.6,0.7,1.6,1.7v3.1h-0.8v-3.1c0-0.5-0.3-0.9-0.8-0.9
	c0,0-0.1,0-0.1,0c-0.7,0-1.3,0.5-1.4,1.3c0,0.1,0,0.2,0,0.2v2.6h-0.8V55.9z"/>
<path class="st0" d="M271.4,59.1c0,0.7,0.6,0.9,1.2,0.9c0.5,0,1.1-0.1,1.1-0.7s-0.8-0.7-1.5-0.9s-1.5-0.4-1.5-1.3s0.9-1.3,1.7-1.3
	c1,0,1.9,0.3,1.9,1.5h-0.8c0-0.6-0.6-0.8-1.1-0.8s-1,0.1-1,0.6s0.8,0.6,1.5,0.8s1.5,0.4,1.5,1.3c0,1.1-1,1.5-2,1.5s-1.9-0.4-2-1.6
	L271.4,59.1z"/>
<path class="st0" d="M279,57.4c-0.1-0.6-0.6-1-1.1-0.9c-1.1,0-1.5,0.9-1.5,1.8s0.4,1.7,1.4,1.7c0.7,0,1.2-0.5,1.2-1.1h0.8
	c-0.1,1.1-1,1.9-2,1.8c-1.2,0-2.2-0.9-2.2-2c0-0.1,0-0.2,0-0.3c-0.2-1.2,0.7-2.3,1.9-2.5c0.1,0,0.2,0,0.3,0c1-0.1,1.9,0.6,2,1.5
	c0,0,0,0,0,0.1L279,57.4z"/>
<path class="st0" d="M281,54.2h0.8v2.5l0,0c0.3-0.5,0.9-0.8,1.5-0.8c1.2,0,1.6,0.7,1.6,1.7v3.1h-0.8v-3.2c0-0.5-0.3-0.9-0.8-0.9
	c0,0-0.1,0-0.1,0c-0.7,0-1.3,0.5-1.4,1.3c0,0.1,0,0.2,0,0.2v2.6H281V54.2z"/>
<path class="st0" d="M290.2,60.6h-0.7v-0.7l0,0c-0.3,0.6-0.9,0.9-1.5,0.8c-1.2,0-1.6-0.7-1.6-1.7v-3.1h0.8v3.2
	c0,0.5,0.3,0.9,0.8,0.9c0,0,0.1,0,0.1,0c0.7,0,1.3-0.5,1.4-1.2c0-0.1,0-0.2,0-0.2v-2.6h0.8L290.2,60.6z"/>
<path class="st0" d="M292.8,55.9h0.9v0.7h-0.9v2.9c0,0.3,0.1,0.4,0.6,0.4h0.4v0.7h-0.6c-0.8,0-1.1-0.2-1.1-1v-3h-0.8v-0.7h0.8v-1.4
	h0.8L292.8,55.9z"/>
<path class="st0" d="M294.5,60l2.8-3.4h-2.6v-0.7h3.6v0.5l-2.8,3.5h3v0.7h-3.9L294.5,60z"/>
<path class="st0" d="M302.6,54.2h1.2l2,5.4l2-5.4h1.2v6.4h-0.8v-5.3l0,0l-2,5.3h-0.7l-2-5.3l0,0v5.3h-0.8L302.6,54.2z"/>
<path class="st0" d="M314.6,59.1c-0.2,1-1,1.7-2,1.6c-1.5,0-2.2-1-2.2-2.5c-0.1-1.2,0.8-2.3,2.1-2.4c0,0,0.1,0,0.1,0
	c1.6,0,2.1,1.5,2.1,2.7h-3.5c-0.1,0.8,0.5,1.4,1.2,1.5c0.1,0,0.2,0,0.2,0c0.6,0.1,1.1-0.3,1.2-0.9L314.6,59.1z M313.9,57.8
	c0-0.7-0.6-1.3-1.3-1.3c-0.7,0-1.3,0.6-1.3,1.3c0,0,0,0,0,0H313.9z"/>
<path class="st0" d="M320,60.6h-0.8V60l0,0c-0.3,0.5-0.9,0.8-1.5,0.7c-1.2,0-2.2-1-2.2-2.2c0-0.1,0-0.2,0-0.2
	c-0.1-1.2,0.7-2.3,1.9-2.4c0.1,0,0.2,0,0.3,0c0.6,0,1.2,0.3,1.5,0.7l0,0v-2.4h0.8V60.6z M317.9,60c1,0,1.4-0.9,1.4-1.8
	s-0.4-1.8-1.5-1.8s-1.4,0.9-1.4,1.8S316.9,60,317.9,60z"/>
<path class="st0" d="M322.4,55.1h-0.8v-0.9h0.8V55.1z M321.6,55.9h0.8v4.7h-0.8V55.9z"/>
<path class="st0" d="M327.1,57.4c-0.1-0.6-0.6-1-1.1-0.9c-1.1,0-1.5,0.9-1.5,1.8s0.4,1.7,1.4,1.7c0.7,0,1.2-0.5,1.3-1.1c0,0,0,0,0,0
	h0.8c-0.1,1.1-1,1.9-2,1.8c0,0,0,0,0,0c-1.2,0-2.2-0.9-2.2-2c0-0.1,0-0.2,0-0.3c-0.2-1.2,0.7-2.3,1.9-2.5c0.1,0,0.2,0,0.3,0
	c1-0.1,1.9,0.6,2,1.5c0,0,0,0,0,0.1L327.1,57.4z"/>
<path class="st0" d="M333.2,60.6c-0.2,0.1-0.4,0.1-0.5,0.1c-0.4,0-0.6-0.2-0.6-0.7c-0.4,0.5-1,0.7-1.6,0.7c-0.9,0-1.5-0.4-1.5-1.3
	s0.8-1.3,1.6-1.4s1.6-0.1,1.6-0.7s-0.5-0.8-1-0.8c-0.6,0-1.1,0.2-1.2,0.9H329c0-1.2,0.9-1.6,2-1.6c0.8,0,1.8,0.2,1.8,1.3v2.4
	c0,0.4,0,0.5,0.2,0.5c0.1,0,0.2,0,0.2,0V60.6z M332,58.2c-0.4,0.2-0.9,0.3-1.4,0.3c-0.5,0.1-0.9,0.3-0.9,0.8s0.4,0.7,0.9,0.7
	c1,0,1.4-0.6,1.4-1L332,58.2z"/>
<path class="st0" d="M334.3,54.2h0.8v6.4h-0.8V54.2z"/>
<path class="st0" d="M344.2,56.1c-0.2-0.9-0.9-1.4-1.8-1.4c-1.5,0-2.2,1.3-2.2,2.6s0.6,2.7,2.2,2.7c1,0,1.8-0.8,1.9-1.8
	c0,0,0,0,0-0.1h0.9c0,1.4-1.2,2.6-2.7,2.6c0,0-0.1,0-0.1,0c-2,0-3-1.5-3-3.3s1.1-3.4,3-3.4c1.3-0.1,2.5,0.8,2.7,2.1H344.2z"/>
<path class="st0" d="M350.5,60.6c-0.2,0.1-0.4,0.1-0.5,0.1c-0.4,0-0.6-0.2-0.6-0.7c-0.4,0.5-1,0.7-1.6,0.7c-0.9,0-1.5-0.4-1.5-1.3
	s0.8-1.3,1.6-1.4s1.6-0.1,1.6-0.7s-0.5-0.8-1-0.8c-0.6,0-1.1,0.2-1.2,0.9h-0.8c0-1.2,0.9-1.6,2-1.6c0.8,0,1.8,0.2,1.8,1.3v2.4
	c0,0.4,0,0.5,0.2,0.5c0.1,0,0.2,0,0.2,0L350.5,60.6z M349.2,58.2c-0.4,0.2-0.9,0.3-1.4,0.3c-0.5,0.1-0.9,0.3-0.9,0.8
	s0.4,0.7,0.9,0.7c1,0,1.4-0.6,1.4-1L349.2,58.2z"/>
<path class="st0" d="M351.6,55.9h0.7v0.7l0,0c0.3-0.5,0.9-0.8,1.5-0.8c0.6-0.1,1.1,0.3,1.3,0.8c0.3-0.5,0.9-0.8,1.5-0.8
	c0.9,0,1.5,0.4,1.5,1.3v3.4h-0.8v-3c0-0.6-0.1-1-0.9-1c-0.6,0-1.2,0.4-1.2,1c0,0,0,0.1,0,0.1v2.9h-0.8v-3.1c0-0.6-0.2-1-0.9-1
	c-0.7,0-1.2,0.5-1.2,1.2v2.9h-0.8L351.6,55.9z"/>
<path class="st0" d="M359.6,55.9h0.8v0.6l0,0c0.3-0.5,0.9-0.8,1.5-0.7c1.2,0,2.2,1,2.1,2.2c0,0.1,0,0.2,0,0.2
	c0.1,1.2-0.7,2.3-1.9,2.4c-0.1,0-0.2,0-0.3,0c-0.6,0-1.2-0.3-1.5-0.7l0,0v2.4h-0.8V55.9z M361.8,56.5c-1,0-1.4,0.9-1.4,1.8
	s0.4,1.8,1.5,1.8s1.4-0.9,1.4-1.8S362.8,56.5,361.8,56.5L361.8,56.5z"/>
<path class="st0" d="M369.1,60.6h-0.7v-0.7l0,0c-0.3,0.6-0.9,0.9-1.5,0.8c-1.2,0-1.6-0.7-1.6-1.7v-3.1h0.8v3.2
	c0,0.5,0.4,0.9,0.8,0.9c0,0,0,0,0.1,0c0.7,0,1.3-0.5,1.4-1.2c0-0.1,0-0.2,0-0.2v-2.6h0.8V60.6z"/>
<path class="st0" d="M371.1,59.1c0,0.7,0.6,0.9,1.2,0.9c0.5,0,1.1-0.1,1.1-0.7s-0.8-0.7-1.5-0.9s-1.5-0.4-1.5-1.3s0.9-1.3,1.7-1.3
	c1,0,1.9,0.3,1.9,1.5h-0.8c0-0.6-0.6-0.8-1.1-0.8s-1,0.1-1,0.6s0.8,0.6,1.5,0.8s1.5,0.4,1.5,1.3c0,1.1-1,1.5-2,1.5s-1.9-0.4-2-1.6
	L371.1,59.1z"/>
<polygon class="st2" points="9.8,0 0,9.8 0,43.7 9.8,53.5 20.6,53.5 20.6,61.8 30.5,71.6 59.2,71.6 69.1,61.8 69.1,35.5 74.2,35.5 
	74.2,18 53.6,18 53.6,9.8 43.8,0 "/>
<polygon class="st3" points="43.4,1 52.6,10.2 52.6,19.1 73.1,19.1 73.1,34.5 68.1,34.5 68.1,61.3 58.8,70.6 30.9,70.6 21.6,61.3 
	21.6,52.5 10.2,52.5 1,43.3 1,10.2 10.2,1 "/>
<polygon class="st0" points="11.3,50 24.2,50 24.2,60.3 32,68 57.7,68 65.5,60.3 65.5,32 70.6,32 70.6,21.6 55.1,21.6 55.1,57.7 
	34.5,57.7 34.5,50 42.3,50 50,42.2 50,32 39.7,32 39.7,39.6 34.5,39.6 34.5,21.6 19,21.6 19,32 24.2,32 24.2,39.6 13.9,39.6 
	13.9,13.8 39.7,13.8 39.7,21.6 50,21.6 50,11.3 42.3,3.6 11.3,3.6 3.6,11.3 3.6,42.2 "/>
<polygon class="st2" points="33.2,48.7 41.8,48.7 48.7,41.7 48.7,33.2 40.9,33.2 40.9,40.9 33.2,40.9 33.2,22.9 20.3,22.9 
	20.3,30.7 25.5,30.7 25.5,40.9 12.6,40.9 12.6,12.5 40.9,12.5 40.9,20.3 48.7,20.3 48.7,11.8 41.8,4.8 11.8,4.8 4.8,11.8 4.8,41.7 
	11.8,48.7 25.5,48.7 25.5,59.8 32.5,66.8 57.2,66.8 64.3,59.8 64.3,30.7 69.3,30.7 69.3,22.9 56.3,22.9 56.3,59 33.2,59 "/>
</svg>
