<svg version="1.2" xmlns="http://www.w3.org/2000/svg" viewBox="0 0 29 28" width="29" height="28">
	<title>cu-mobile-logo-svg</title>
	<style>
		.s0 { fill: #d0b97c } 
		.s1 { fill: #231f20 } 
		.s2 { fill: #ffffff } 
		.s3 { fill: #000000 } 
	</style>
	<g id="Layer_2">
		<g id="Anschutz_shorty">
			<path id="Layer" class="s0" d="m20.9 7l0.1-3.2-3.9-3.8h-13.2l-3.9 3.8v13.3l3.9 3.8h4.2v3.3l3.8 3.8h11.2l3.9-3.8v-10.3h2v-6.8h-8z"/>
			<path id="Layer" class="s1" d="m17 0.4l3.6 3.6v3.5h8v6h-2v10.5l-3.6 3.6h-10.9l-3.6-3.6v-3.5h-4.5l-3.6-3.6v-12.9l3.6-3.6h13z"/>
			<path id="Layer" class="s2" d="m4.4 19.5h5.1v4.1l3 3h10.1l3-3v-11.1h2v-4.1h-6.1v14.2h-8v-3.1h3l3.1-3v-4h-4.1v3h-2v-7.1h-6.1v4.1h2.1v3h-4.1v-10.1h10.1v3h4.1v-4l-3.1-3h-12.1l-3 3v12.1l3 3"/>
			<path id="Layer" class="s0" d="m13 19h3.3l2.8-2.7v-3.3h-3.1v3h-3v-7.1h-5v3.1h2v4h-5.1v-11.1h11.1v3h3.1v-3.3l-2.8-2.7h-11.7l-2.7 2.7v11.7l2.7 2.7h5.4v4.4l2.7 2.7h9.7l2.7-2.7v-11.4h2v-3.1h-5.1v14.2h-9v-4.1z"/>
			<path id="Layer" fill-rule="evenodd" class="s3" d="m45.8 6.4h1.7l6.3 16h-1.6l-1.9-5h-7.3l-1.9 5h-1.7zm-2.4 9.7h6.3l-3.1-8.2z"/>
			<path id="Layer" class="s3" d="m55 10.8h1.4v2q0.2-0.5 0.6-1 0.4-0.4 0.9-0.7 0.5-0.3 1-0.5 0.6-0.1 1.2-0.1c3.3 0 4.2 1.7 4.2 4.4v7.5h-1.4v-7.3c0-2-0.6-3.5-2.9-3.5-2.3 0-3.6 1.8-3.6 4v6.8h-1.4z"/>
			<path id="Layer" class="s3" d="m73.9 14.2c-0.1-1.8-1.4-2.6-3-2.6-1.3 0-2.7 0.5-2.7 2 0 1.3 1.4 1.7 2.4 2l1.8 0.4c1.6 0.3 3.3 1.2 3.3 3.2 0 2.5-2.5 3.5-4.6 3.5-2.7 0-4.5-1.3-4.7-4.1h1.4c0.1 1.9 1.5 2.9 3.4 2.9 1.3 0 3.1-0.6 3.1-2.2 0-1.3-1.2-1.8-2.5-2.1l-1.8-0.4c-1.9-0.5-3.3-1.1-3.3-3.1 0-2.3 2.3-3.3 4.4-3.3 2.3 0 4.1 1.3 4.2 3.8z"/>
			<path id="Layer" class="s3" d="m85.9 14.4q-0.1-0.6-0.4-1.1-0.2-0.5-0.7-0.9-0.4-0.4-1-0.6-0.6-0.2-1.2-0.2c-2.7 0-4 2.5-4 5 0 2.4 1.4 4.9 4 4.9q0.7 0 1.3-0.3 0.6-0.2 1.1-0.7 0.4-0.5 0.7-1.1 0.3-0.6 0.3-1.2h1.4c-0.4 2.8-2.2 4.5-4.8 4.5-3.5 0-5.4-2.8-5.4-6.1 0-3.4 1.9-6.1 5.4-6.1q0.9-0.1 1.7 0.1 0.8 0.3 1.5 0.9 0.7 0.5 1 1.3 0.4 0.8 0.5 1.7z"/>
			<path id="Layer" class="s3" d="m89.3 6.4h1.4v6.4q0.3-0.5 0.6-1 0.4-0.4 0.9-0.7 0.5-0.4 1.1-0.5 0.5-0.2 1.1-0.1c3.3 0 4.2 1.7 4.2 4.4v7.4h-1.3v-7.2c0-2-0.7-3.5-2.9-3.5-2.3 0-3.6 1.8-3.7 4v6.8h-1.4z"/>
			<path id="Layer" class="s3" d="m110.7 22.3h-1.3v-2.1q-0.3 0.6-0.7 1.1-0.4 0.4-0.9 0.8-0.6 0.3-1.2 0.4-0.6 0.2-1.2 0.2c-2.9 0-4-1.7-4-4.4v-7.5h1.4v7.5c0.1 2.1 0.9 3.2 3.1 3.2 2.4 0 3.5-2.3 3.5-4.6v-6.1h1.4z"/>
			<path id="Layer" class="s3" d="m115.6 10.8h2.3v1.2h-2.3v7.8c0 0.9 0.1 1.4 1.1 1.5q0.6 0 1.3-0.1v1.2q-0.7 0-1.3 0c-1.9 0-2.5-0.6-2.5-2.6v-7.8h-2v-1.2h2v-3.5h1.4z"/>
			<path id="Layer" class="s3" d="m120.7 21.1h7.9v1.2h-9.6v-1.1l7.5-9.2h-7v-1.2h8.8v1z"/>
		</g>
	</g>
</svg>