<?xml version="1.0" encoding="UTF-8"?>
<svg id="Layer_1" xmlns="http://www.w3.org/2000/svg" version="1.1" viewBox="0 0 396 108">
  <!-- Generator: Adobe Illustrator 29.8.2, SVG Export Plug-In . SVG Version: 2.1.1 Build 3)  -->
  <defs>
    <style>
      .st0 {
        fill: #231f20;
      }

      .st1 {
        fill: #fff;
      }

      .st2 {
        fill: #cfb87c;
      }
    </style>
  </defs>
  <g>
    <path class="st1" d="M108,79h-3.9v-8.6h4.2c1.1,0,1.8.3,2.2.9.3.4.4.8.4,1.3s-.1,1-.4,1.3c-.1.2-.4.3-.7.5.4.2.8.4,1,.8s.3.8.3,1.3-.1,1-.4,1.4c-.2.3-.4.5-.6.7-.3.2-.6.4-1,.4s-.8.1-1.2.1ZM108.9,73.5c.2-.1.4-.4.4-.8s-.2-.7-.5-.8c-.3,0-.6-.1-1-.1h-1.9v1.9h2.1c.4,0,.7,0,.9-.2ZM108,75.2h-2.2v2.3h2.1c.4,0,.7,0,.9-.2.4-.2.6-.5.6-1.1s-.2-.8-.6-.9c-.2,0-.5-.1-.9-.1Z"/>
    <path class="st1" d="M118.2,73.4c.5.7.8,1.5.8,2.4s-.3,1.7-.8,2.4-1.4,1-2.5,1-1.9-.3-2.5-1-.8-1.5-.8-2.4.3-1.7.8-2.4,1.4-1,2.5-1,1.9.3,2.5,1ZM115.7,73.8c-.5,0-.9.2-1.1.5s-.4.8-.4,1.5.1,1.1.4,1.5.6.5,1.1.5.9-.2,1.1-.5.4-.8.4-1.5-.1-1.1-.4-1.5-.6-.5-1.1-.5Z"/>
    <path class="st1" d="M124.5,78.1s0,0-.1.2-.1.2-.2.3c-.3.2-.5.4-.8.5s-.5.1-.9.1c-.9,0-1.6-.3-1.9-1-.2-.4-.3-.9-.3-1.7v-3.8h1.7v3.8c0,.4,0,.6.1.8.2.3.5.5.9.5s1-.2,1.2-.7c.1-.2.2-.6.2-1v-3.5h1.7v6.4h-1.6v-.9Z"/>
    <path class="st1" d="M128,70.3h1.7v8.6h-1.7v-8.6Z"/>
    <path class="st1" d="M137.4,70.3v8.6h-1.6v-.9c-.2.4-.5.7-.8.8s-.7.3-1.1.3c-.7,0-1.4-.3-1.9-.9s-.8-1.4-.8-2.3.3-1.9.8-2.6,1.2-.9,2-.9.7,0,1,.3.5.4.7.7v-3h1.7ZM132.9,75.8c0,.6.1,1.1.4,1.4.2.4.6.5,1.1.5s.8-.2,1.1-.5.4-.8.4-1.4-.2-1.3-.6-1.7c-.2-.2-.5-.3-.8-.3-.5,0-.8.2-1.1.6s-.3.8-.3,1.4Z"/>
    <path class="st1" d="M144.6,77.1c0,.4-.2.8-.6,1.2-.5.6-1.3.9-2.3.9s-1.5-.3-2.2-.8-.9-1.4-.9-2.6.3-2,.8-2.5,1.3-.9,2.2-.9,1,0,1.4.3.8.5,1.1.9c.2.4.4.8.5,1.3,0,.3,0,.7,0,1.3h-4.4c0,.6.2,1.1.6,1.3.2.2.5.2.8.2s.6,0,.8-.3c.1-.1.2-.3.3-.4h1.7ZM142.9,75.1c0-.4-.2-.8-.4-1s-.5-.3-.9-.3-.7.1-.9.4-.3.6-.4,1h2.6Z"/>
    <path class="st1" d="M149.3,74.1c-.7,0-1.1.2-1.4.7-.1.2-.2.6-.2,1.1v3.1h-1.7v-6.4h1.6v1.1c.3-.4.5-.7.7-.9.3-.3.7-.4,1.2-.4s0,0,0,0,0,0,.1,0v1.7c-.1,0-.2,0-.3,0s-.1,0-.2,0Z"/>
    <path class="st1" d="M154.4,79v-8.7h1.5v8.7h-1.5Z"/>
    <path class="st1" d="M167.9,78.3c-.6.6-1.5.9-2.5.9s-2.2-.4-2.9-1.2c-.7-.8-1.1-1.9-1.1-3.3s.4-2.7,1.2-3.5c.7-.7,1.6-1.1,2.7-1.1s2.5.5,3.2,1.4c.4.5.6,1.1.6,1.6h-1.8c-.1-.4-.3-.7-.5-.9-.3-.4-.8-.6-1.5-.6s-1.2.3-1.6.8-.6,1.3-.6,2.2.2,1.7.6,2.2.9.7,1.5.7,1.1-.2,1.4-.6c.2-.2.3-.6.5-1h1.8c-.2.9-.6,1.7-1.2,2.3Z"/>
    <path class="st1" d="M175.9,73.4c.5.7.8,1.5.8,2.4s-.3,1.7-.8,2.4-1.4,1-2.5,1-1.9-.3-2.5-1-.8-1.5-.8-2.4.3-1.7.8-2.4,1.4-1,2.5-1,1.9.3,2.5,1ZM173.5,73.8c-.5,0-.9.2-1.1.5s-.4.8-.4,1.5.1,1.1.4,1.5.6.5,1.1.5.9-.2,1.1-.5.4-.8.4-1.5-.1-1.1-.4-1.5-.6-.5-1.1-.5Z"/>
    <path class="st1" d="M178.2,70.3h1.7v8.6h-1.7v-8.6Z"/>
    <path class="st1" d="M187.1,73.4c.5.7.8,1.5.8,2.4s-.3,1.7-.8,2.4-1.4,1-2.5,1-1.9-.3-2.5-1-.8-1.5-.8-2.4.3-1.7.8-2.4,1.4-1,2.5-1,1.9.3,2.5,1ZM184.6,73.8c-.5,0-.9.2-1.1.5s-.4.8-.4,1.5.1,1.1.4,1.5.6.5,1.1.5.9-.2,1.1-.5.4-.8.4-1.5-.1-1.1-.4-1.5-.6-.5-1.1-.5Z"/>
    <path class="st1" d="M192.5,74.1c-.7,0-1.1.2-1.4.7-.1.2-.2.6-.2,1.1v3.1h-1.7v-6.4h1.6v1.1c.3-.4.5-.7.7-.9.3-.3.7-.4,1.2-.4s0,0,0,0,0,0,.1,0v1.7c-.1,0-.2,0-.3,0s-.1,0-.2,0Z"/>
    <path class="st1" d="M194.5,73.3c.4-.6,1.2-.8,2.3-.8s1.3.1,1.9.4.8.8.8,1.6v2.9c0,.2,0,.4,0,.7,0,.2,0,.4,0,.4s.1.1.2.2v.2h-1.8c0-.1,0-.2-.1-.4s0-.2,0-.4c-.2.2-.5.5-.8.6-.4.2-.8.3-1.2.3s-1.1-.2-1.4-.5-.6-.8-.6-1.4.3-1.4.9-1.7c.3-.2.8-.3,1.5-.4h.6c.3-.1.5-.2.7-.2.2-.1.4-.3.4-.5s0-.4-.3-.5-.4-.1-.8-.1-.7,0-.8.3c-.1.1-.2.3-.2.6h-1.6c0-.6.2-1,.5-1.4ZM195.7,77.8c.2.1.3.2.6.2.4,0,.7-.1,1-.3s.5-.6.5-1.2v-.6c-.1,0-.2.1-.3.2s-.3,0-.4.1h-.4c-.4.1-.6.2-.8.3-.3.2-.4.4-.4.7s0,.5.2.6Z"/>
    <path class="st1" d="M207,70.3v8.6h-1.6v-.9c-.2.4-.5.7-.8.8s-.7.3-1.1.3c-.7,0-1.4-.3-1.9-.9s-.8-1.4-.8-2.3.3-1.9.8-2.6,1.2-.9,2-.9.7,0,1,.3.5.4.7.7v-3h1.7ZM202.5,75.8c0,.6.1,1.1.4,1.4.2.4.6.5,1.1.5s.8-.2,1.1-.5.4-.8.4-1.4-.2-1.3-.6-1.7c-.2-.2-.5-.3-.8-.3-.5,0-.8.2-1.1.6s-.3.8-.3,1.4Z"/>
    <path class="st1" d="M214,73.4c.5.7.8,1.5.8,2.4s-.3,1.7-.8,2.4-1.4,1-2.5,1-1.9-.3-2.5-1-.8-1.5-.8-2.4.3-1.7.8-2.4,1.4-1,2.5-1,1.9.3,2.5,1ZM211.6,73.8c-.5,0-.9.2-1.1.5s-.4.8-.4,1.5.1,1.1.4,1.5.6.5,1.1.5.9-.2,1.1-.5.4-.8.4-1.5-.1-1.1-.4-1.5-.6-.5-1.1-.5Z"/>
    <path class="st1" d="M223.1,77.7c.4,0,.8,0,1-.1.5-.2.8-.5.8-1s-.1-.5-.4-.7c-.2-.2-.6-.3-1.2-.4l-.9-.2c-.9-.2-1.5-.4-1.9-.7-.6-.4-.9-1-.9-1.9s.3-1.4.8-1.9,1.4-.8,2.5-.8,1.7.2,2.3.7,1,1.2,1,2.1h-1.7c0-.5-.3-.9-.7-1.1-.3-.1-.6-.2-1-.2s-.8,0-1.1.3-.4.4-.4.8.1.5.4.7c.2.1.6.2,1.1.4l1.5.4c.7.2,1.1.4,1.5.6.5.4.8,1,.8,1.8s-.3,1.4-.9,2-1.5.8-2.6.8-2-.3-2.7-.8-1-1.2-1-2.1h1.7c0,.4.2.7.3.9.3.4.8.5,1.5.5Z"/>
    <path class="st1" d="M233.4,73.3c.5.6.8,1.4.8,2.4s-.3,2-.8,2.6-1.2.9-2,.9-.9-.1-1.3-.4c-.2-.1-.4-.3-.5-.6v3.3h-1.7v-8.9h1.6v.9c.2-.3.4-.5.6-.7.4-.3.8-.4,1.3-.4.7,0,1.4.3,1.9.8ZM232.5,75.8c0-.5-.1-.9-.3-1.3s-.6-.6-1.1-.6-1,.3-1.2.9c-.1.3-.2.7-.2,1.2,0,.7.2,1.3.6,1.6.2.2.5.3.8.3.5,0,.8-.2,1.1-.5s.4-.8.4-1.4Z"/>
    <path class="st1" d="M238.9,74.1c-.7,0-1.1.2-1.4.7-.1.2-.2.6-.2,1.1v3.1h-1.7v-6.4h1.6v1.1c.3-.4.5-.7.7-.9.3-.3.7-.4,1.2-.4s0,0,0,0,0,0,.1,0v1.7c-.1,0-.2,0-.3,0s-.1,0-.2,0Z"/>
    <path class="st1" d="M242.3,70.3v1.5h-1.7v-1.5h1.7ZM242.3,72.6v6.4h-1.7v-6.4h1.7Z"/>
    <path class="st1" d="M247.2,73.8c-.6,0-1,.2-1.2.7-.1.3-.2.6-.2,1v3.5h-1.7v-6.4h1.6v.9c.2-.3.4-.6.6-.7.3-.3.8-.4,1.3-.4s1.2.2,1.6.5.6.9.6,1.7v4.3h-1.7v-3.9c0-.3,0-.6-.1-.8-.2-.3-.5-.5-.9-.5Z"/>
    <path class="st1" d="M253.5,80.1c.2.2.5.2.9.2s1-.2,1.2-.6c.1-.3.2-.7.2-1.3v-.4c-.2.3-.3.5-.5.6-.3.3-.8.4-1.3.4-.8,0-1.5-.3-2-.9s-.7-1.4-.7-2.3.2-1.7.7-2.4,1.1-1,2-1,.6,0,.8.1c.4.2.7.5,1,.9v-.9h1.6v6.1c0,.8-.1,1.4-.4,1.9-.5.7-1.4,1.1-2.7,1.1s-1.5-.2-2-.5-.8-.8-.9-1.4h1.8c0,.2.1.3.2.4ZM253.2,76.8c.2.5.6.8,1.2.8s.7-.1,1-.4.4-.8.4-1.4-.1-1.1-.4-1.4-.6-.5-1-.5-1,.3-1.2.8c-.1.3-.2.7-.2,1.1s0,.7.2,1Z"/>
    <path class="st1" d="M263.7,72.9c.5.3.8.9.9,1.7h-1.7c0-.2,0-.4-.2-.5-.2-.2-.5-.3-.9-.3s-.6,0-.8.2-.2.2-.2.4,0,.3.2.4c.2,0,.7.2,1.7.5.7.2,1.2.4,1.5.7.3.3.5.7.5,1.2s-.2,1.1-.7,1.5-1.2.6-2.2.6-1.7-.2-2.2-.6-.7-1-.7-1.6h1.7c0,.3.1.5.2.6.2.2.6.3,1.1.3s.6,0,.8-.1.3-.2.3-.4,0-.3-.2-.4-.7-.3-1.7-.5c-.7-.2-1.2-.4-1.5-.7-.3-.3-.4-.6-.4-1.1s.2-1.1.7-1.5,1.1-.6,2-.6,1.4.2,2,.5Z"/>
    <path class="st1" d="M269.6,79v-8.7h1.5v8.7h-1.5Z"/>
    <path class="st1" d="M280.8,79h-3.7v-8.6h3.7c.5,0,1,0,1.3.2.6.2,1.1.6,1.5,1.1.3.4.5.9.6,1.4s.2,1,.2,1.4c0,1.1-.2,2.1-.7,2.9-.6,1.1-1.6,1.6-2.9,1.6ZM282.1,72.5c-.3-.5-.8-.7-1.6-.7h-1.7v5.6h1.7c.9,0,1.4-.4,1.8-1.3.2-.5.3-1,.3-1.6s-.1-1.6-.4-2Z"/>
    <path class="st1" d="M291.3,77.1c0,.4-.2.8-.6,1.2-.5.6-1.3.9-2.3.9s-1.5-.3-2.2-.8-.9-1.4-.9-2.6.3-2,.8-2.5,1.3-.9,2.2-.9,1,0,1.4.3c.4.2.8.5,1.1.9.2.4.4.8.5,1.3,0,.3,0,.7,0,1.3h-4.4c0,.6.2,1.1.6,1.3.2.2.5.2.8.2s.6,0,.8-.3c.1-.1.2-.3.3-.4h1.7ZM289.7,75.1c0-.4-.2-.8-.4-1s-.5-.3-.9-.3-.7.1-.9.4-.3.6-.4,1h2.6Z"/>
    <path class="st1" d="M295.8,73.8c-.6,0-1,.2-1.2.7-.1.3-.2.6-.2,1v3.5h-1.7v-6.4h1.6v.9c.2-.3.4-.6.6-.7.3-.3.8-.4,1.3-.4s1.2.2,1.6.5.6.9.6,1.7v4.3h-1.7v-3.9c0-.3,0-.6-.1-.8-.2-.3-.5-.5-.9-.5Z"/>
    <path class="st1" d="M299.7,72.6h1.9l1.3,4.7,1.4-4.7h1.8l-2.3,6.4h-1.8l-2.3-6.4Z"/>
    <path class="st1" d="M312.7,77.1c0,.4-.2.8-.6,1.2-.5.6-1.3.9-2.3.9s-1.5-.3-2.2-.8-.9-1.4-.9-2.6.3-2,.8-2.5,1.3-.9,2.2-.9,1,0,1.4.3.8.5,1.1.9c.2.4.4.8.5,1.3,0,.3,0,.7,0,1.3h-4.4c0,.6.2,1.1.6,1.3.2.2.5.2.8.2s.6,0,.8-.3c.1-.1.2-.3.3-.4h1.7ZM311.1,75.1c0-.4-.2-.8-.4-1s-.5-.3-.9-.3-.7.1-.9.4-.3.6-.4,1h2.6Z"/>
    <path class="st1" d="M317.4,74.1c-.7,0-1.1.2-1.4.7-.1.2-.2.6-.2,1.1v3.1h-1.7v-6.4h1.6v1.1c.3-.4.5-.7.7-.9.3-.3.7-.4,1.2-.4s0,0,0,0,0,0,.1,0v1.7c-.1,0-.2,0-.3,0s-.1,0-.2,0Z"/>
    <path class="st1" d="M322.5,79v-8.7h1.5v8.7h-1.5Z"/>
    <path class="st1" d="M334.6,77.2h-3.2l-.6,1.8h-1.9l3.1-8.6h2l3.1,8.6h-2l-.6-1.8ZM334.1,75.7l-1.1-3.4-1.1,3.4h2.2Z"/>
    <path class="st1" d="M341.3,73.8c-.6,0-1,.2-1.2.7-.1.3-.2.6-.2,1v3.5h-1.7v-6.4h1.6v.9c.2-.3.4-.6.6-.7.3-.3.8-.4,1.3-.4s1.2.2,1.6.5.6.9.6,1.7v4.3h-1.7v-3.9c0-.3,0-.6-.1-.8-.2-.3-.5-.5-.9-.5Z"/>
    <path class="st1" d="M350.3,72.9c.5.3.8.9.9,1.7h-1.7c0-.2,0-.4-.2-.5-.2-.2-.5-.3-.9-.3s-.6,0-.8.2-.2.2-.2.4,0,.3.2.4c.2,0,.7.2,1.7.5.7.2,1.2.4,1.5.7.3.3.5.7.5,1.2s-.2,1.1-.7,1.5c-.5.4-1.2.6-2.2.6s-1.7-.2-2.2-.6-.7-1-.7-1.6h1.7c0,.3.1.5.2.6.2.2.6.3,1.1.3s.6,0,.8-.1.3-.2.3-.4,0-.3-.2-.4-.7-.3-1.7-.5c-.7-.2-1.2-.4-1.5-.7-.3-.3-.4-.6-.4-1.1s.2-1.1.7-1.5,1.1-.6,2-.6,1.4.2,2,.5Z"/>
    <path class="st1" d="M358.3,74.9h-1.7c0-.2-.1-.5-.2-.6-.2-.3-.5-.4-.9-.4-.6,0-.9.3-1.2.8-.1.3-.2.7-.2,1.2s0,.8.2,1.1c.2.5.6.8,1.1.8s.7-.1.8-.3.3-.5.3-.8h1.7c0,.5-.2,1-.6,1.4-.5.7-1.3,1.1-2.3,1.1s-1.8-.3-2.3-.9-.7-1.4-.7-2.4.3-2,.8-2.6,1.3-.9,2.2-.9,1.5.2,2,.5.8,1,.9,1.9Z"/>
    <path class="st1" d="M365.5,75.2v3.8h-1.7v-3.9c0-.3,0-.6-.2-.8-.2-.3-.4-.4-.9-.4s-.8.1-1,.4-.3.7-.3,1.3v3.5h-1.7v-8.6h1.7v3.1c.2-.4.5-.6.8-.8s.7-.2,1-.2.8,0,1.1.2.6.3.8.6c.2.2.3.5.3.7s0,.7,0,1.2Z"/>
    <path class="st1" d="M371.4,78.1s0,0-.1.2-.1.2-.2.3c-.3.2-.5.4-.8.5s-.5.1-.9.1c-.9,0-1.6-.3-1.9-1-.2-.4-.3-.9-.3-1.7v-3.8h1.7v3.8c0,.4,0,.6.1.8.2.3.5.5.9.5s1-.2,1.2-.7c.1-.2.2-.6.2-1v-3.5h1.7v6.4h-1.6v-.9Z"/>
    <path class="st1" d="M377.8,77.8v1.2h-.8c-.8,0-1.3,0-1.6-.4-.2-.2-.3-.5-.3-.9v-3.9h-.9v-1.2h.9v-1.8h1.7v1.8h1v1.2h-1v3.4c0,.3,0,.4,0,.5s.3,0,.6,0,.1,0,.2,0,.1,0,.2,0Z"/>
    <path class="st1" d="M384,79h-5.5v-1.3l3.3-3.7h-3.1v-1.4h5.2v1.4l-3.2,3.6h3.4v1.4Z"/>
  </g>
  <g>
    <path class="st1" d="M103.2,35.6h2v13.3c0,5,2.3,6.9,6.3,6.9s6.3-1.9,6.3-6.9v-13.3h2v13.7c0,4.4-2.4,8.2-8.3,8.2s-8.3-3.7-8.3-8.2v-13.7Z"/>
    <path class="st1" d="M123.5,41.5h1.9v2.7h0c.7-1.9,2.8-3.1,4.9-3.1,4.4,0,5.7,2.3,5.7,6v10h-1.9v-9.7c0-2.7-.9-4.7-3.9-4.7s-4.8,2.3-4.9,5.3v9h-1.9v-15.5Z"/>
    <path class="st1" d="M139.7,35.6h1.9v3h-1.9v-3ZM139.7,41.5h1.9v15.5h-1.9v-15.5Z"/>
    <path class="st1" d="M143.5,41.5h2.1l4.9,13.6h0l4.8-13.6h2l-5.8,15.5h-2l-6-15.5Z"/>
    <path class="st1" d="M160.2,49.8c0,2.8,1.5,6.1,5.1,6.1s4.3-1.6,4.9-4h1.9c-.8,3.5-2.8,5.5-6.7,5.5s-7-3.8-7-8.2,2.1-8.2,7-8.2,7,4.4,6.8,8.7h-11.9ZM170.2,48.2c0-2.9-1.9-5.5-4.9-5.5s-4.8,2.7-5.1,5.5h10Z"/>
    <path class="st1" d="M174.7,41.5h1.7v3.6h0c1-2.5,3.1-4,5.8-3.8v1.9c-3.4-.2-5.8,2.3-5.8,5.5v8.2h-1.9v-15.5Z"/>
    <path class="st1" d="M193.4,46c0-2.3-1.9-3.4-4-3.4s-3.7.7-3.7,2.7,1.9,2.3,3.2,2.6l2.5.6c2.2.3,4.4,1.6,4.4,4.3s-3.3,4.7-6.2,4.7-6.1-1.7-6.4-5.5h1.9c.1,2.5,2,3.9,4.6,3.9s4.2-.8,4.2-2.9-1.7-2.4-3.4-2.8l-2.4-.5c-2.5-.7-4.3-1.5-4.3-4.1s3.1-4.4,5.8-4.4,5.5,1.6,5.7,5h-1.9Z"/>
    <path class="st1" d="M198.6,35.6h1.9v3h-1.9v-3ZM198.6,41.5h1.9v15.5h-1.9v-15.5Z"/>
    <path class="st1" d="M207.1,41.5h3.1v1.6h-3.1v10.4c0,1.2.2,2,1.5,2,.5,0,1.1,0,1.6,0v1.6c-.6,0-1.1,0-1.7,0-2.5,0-3.4-.8-3.4-3.5v-10.6h-2.7v-1.6h2.7v-4.6h1.9v4.6Z"/>
    <path class="st1" d="M211.2,41.5h2l5.1,13.2,4.8-13.2h1.9l-6.7,17.8c-1.1,2.6-1.7,3.4-4.1,3.4-.7,0-1.1,0-1.4-.1v-1.6c.5,0,.9.1,1.3.1,1.7,0,2.1-1,2.7-2.4l.7-1.8-6.2-15.4Z"/>
    <path class="st1" d="M249.1,49.3c0,4.4-2.6,8.2-7.3,8.2s-7.3-3.7-7.3-8.2,2.6-8.2,7.3-8.2,7.3,3.8,7.3,8.2ZM236.3,49.3c0,3.3,1.8,6.6,5.4,6.6s5.4-3.3,5.4-6.6-1.8-6.6-5.4-6.6-5.4,3.3-5.4,6.6Z"/>
    <path class="st1" d="M257.9,43.1h-3.1v13.9h-1.9v-13.9h-2.6v-1.6h2.6v-1.4c0-2.7.7-4.5,3.7-4.5s1,0,1.6.1v1.6c-.5,0-.9-.1-1.4-.1-2.1,0-2,1.3-2.1,3v1.3h3.1v1.6Z"/>
    <path class="st1" d="M284,42.1c-.7-3.3-3.5-5.2-6.6-5.2-5.7,0-8.1,4.7-8.1,9.4s2.4,9.4,8.1,9.4,6.5-3.1,6.9-6.9h2c-.6,5.2-3.9,8.6-8.9,8.6s-10.1-5.3-10.1-11.2,3.4-11.2,10.1-11.2,8.1,2.4,8.6,6.9h-2Z"/>
    <path class="st1" d="M303,49.3c0,4.4-2.6,8.2-7.3,8.2s-7.3-3.7-7.3-8.2,2.6-8.2,7.3-8.2,7.3,3.8,7.3,8.2ZM290.2,49.3c0,3.3,1.8,6.6,5.4,6.6s5.4-3.3,5.4-6.6-1.8-6.6-5.4-6.6-5.4,3.3-5.4,6.6Z"/>
    <path class="st1" d="M305.8,35.6h1.9v21.4h-1.9v-21.4Z"/>
    <path class="st1" d="M325.2,49.3c0,4.4-2.6,8.2-7.3,8.2s-7.3-3.7-7.3-8.2,2.6-8.2,7.3-8.2,7.3,3.8,7.3,8.2ZM312.5,49.3c0,3.3,1.8,6.6,5.4,6.6s5.4-3.3,5.4-6.6-1.8-6.6-5.4-6.6-5.4,3.3-5.4,6.6Z"/>
    <path class="st1" d="M328,41.5h1.7v3.6h0c1-2.5,3.1-4,5.8-3.8v1.9c-3.4-.2-5.8,2.3-5.8,5.5v8.2h-1.9v-15.5Z"/>
    <path class="st1" d="M337.3,46.3c.2-3.6,2.7-5.2,6.3-5.2s5.7.8,5.7,5v8.2c0,.7.4,1.1,1.1,1.1s.5,0,.6-.1v1.6c-.4,0-.7.1-1.2.1-1.9,0-2.2-1.1-2.2-2.7h0c-1.3,2-2.7,3.2-5.6,3.2s-5.2-1.4-5.2-4.5,4.2-4.5,8.3-5c1.6-.2,2.4-.4,2.4-2.1,0-2.5-1.8-3.2-4-3.2s-4.1,1.1-4.1,3.6h-1.9ZM347.4,48.5h0c-.2.5-1.1.6-1.6.7-3.2.6-7.2.5-7.2,3.6s1.7,3.1,3.5,3.1c2.9,0,5.4-1.8,5.4-4.9v-2.5Z"/>
    <path class="st1" d="M366.7,57h-1.7v-2.9h0c-.8,2-3.3,3.4-5.5,3.4-4.7,0-7-3.8-7-8.2s2.2-8.2,7-8.2,4.6,1.2,5.4,3.4h0v-8.9h1.9v21.4ZM359.4,55.9c4,0,5.4-3.4,5.4-6.6s-1.4-6.6-5.4-6.6-5.1,3.4-5.1,6.6,1.5,6.6,5.1,6.6Z"/>
    <path class="st1" d="M384.1,49.3c0,4.4-2.6,8.2-7.3,8.2s-7.3-3.7-7.3-8.2,2.6-8.2,7.3-8.2,7.3,3.8,7.3,8.2ZM371.4,49.3c0,3.3,1.8,6.6,5.4,6.6s5.4-3.3,5.4-6.6-1.8-6.6-5.4-6.6-5.4,3.3-5.4,6.6Z"/>
  </g>
  <polygon class="st2" points="19.8 17.4 10 27.2 10 61.1 19.8 70.9 30.6 70.9 30.6 79.2 40.5 89 69.2 89 79.1 79.2 79.1 52.9 84.2 52.9 84.2 35.5 63.6 35.5 63.6 27.2 53.8 17.4 19.8 17.4"/>
  <polygon class="st0" points="53.4 18.4 62.6 27.7 62.6 36.5 83.1 36.5 83.1 51.9 78.1 51.9 78.1 78.8 68.8 88 40.9 88 31.6 78.8 31.6 69.9 20.3 69.9 11 60.7 11 27.7 20.3 18.4 53.4 18.4"/>
  <polygon class="st1" points="21.3 67.4 34.2 67.4 34.2 77.7 42 85.4 67.7 85.4 75.5 77.7 75.5 49.4 80.6 49.4 80.6 39 65.1 39 65.1 75.1 44.5 75.1 44.5 67.4 52.3 67.4 60 59.6 60 49.4 49.7 49.4 49.7 57 44.5 57 44.5 39 29 39 29 49.4 34.2 49.4 34.2 57 23.9 57 23.9 31.2 49.7 31.2 49.7 39 60 39 60 28.7 52.3 21 21.3 21 13.6 28.7 13.6 59.6 21.3 67.4"/>
  <polygon class="st2" points="43.3 66.1 51.8 66.1 58.7 59.1 58.7 50.6 50.9 50.6 50.9 58.3 43.3 58.3 43.3 40.3 30.3 40.3 30.3 48.1 35.5 48.1 35.5 58.3 22.6 58.3 22.6 30 50.9 30 50.9 37.7 58.7 37.7 58.7 29.2 51.8 22.2 21.8 22.2 14.8 29.2 14.8 59.1 21.8 66.1 35.5 66.1 35.5 77.2 42.5 84.2 67.2 84.2 74.3 77.2 74.3 48.1 79.3 48.1 79.3 40.3 66.3 40.3 66.3 76.4 43.3 76.4 43.3 66.1"/>
</svg>