<?xml version="1.0" encoding="UTF-8"?>
<svg id="Layer_1" data-name="Layer 1" xmlns="http://www.w3.org/2000/svg" viewBox="0 0 995.94 111.02">
  <defs>
    <style>
      .cls-1 {
        fill: #231f20;
      }

      .cls-1, .cls-2, .cls-3 {
        stroke-width: 0px;
      }

      .cls-2 {
        fill: #cfb87c;
      }

      .cls-3 {
        fill: #fff;
      }
    </style>
  </defs>
  <g>
    <path class="cls-1" d="m158.48,25.27h5.96v39.52c0,14.9,6.97,20.48,18.69,20.48s18.87-5.63,18.78-20.48V25.27h5.96v40.86c0,13.14-7.06,24.32-24.86,24.32s-24.77-11.18-24.77-24.32l.24-40.86Z"/>
    <path class="cls-1" d="m219.19,42.97h5.63v7.96h.18c2.57-5.81,8.4-9.48,14.75-9.3,12.97,0,16.9,6.8,16.9,17.88v29.81h-5.63v-29c0-7.96-2.59-13.95-11.71-13.95s-14.31,6.8-14.49,15.83v26.83h-5.63v-46.05Z"/>
    <path class="cls-1" d="m267.39,25.27h5.63v8.94h-5.63v-8.94Zm0,17.7h5.63v46.14h-5.63v-46.14Z"/>
    <path class="cls-1" d="m278.66,42.97h6.26l14.49,40.51h.18l14.19-40.51h5.96l-17.29,46.14h-5.96l-17.82-46.14Z"/>
    <path class="cls-1" d="m328.67,67.56c0,8.23,4.38,18.15,15.2,18.15,8.23,0,12.7-4.83,14.49-11.92h5.63c-2.53,10.61-8.49,16.57-20.24,16.57-14.66,0-20.86-11.27-20.86-24.41,0-12.16,6.17-24.41,20.86-24.41s20.86,12.97,20.3,25.93l-35.38.09Zm29.81-4.74c-.27-8.49-5.54-16.45-14.66-16.45s-14.31,8.05-15.2,16.45h29.87Z"/>
    <path class="cls-1" d="m371.65,42.97h5.19v10.82h.18c2.53-7.34,9.7-12.05,17.44-11.45v5.63c-8.74-.72-16.41,5.79-17.13,14.54-.05.67-.07,1.34-.04,2.01v24.59h-5.63v-46.14Z"/>
    <path class="cls-1" d="m427.45,56.47c-.27-6.97-5.63-10.1-11.92-10.1-5.01,0-10.91,1.97-10.91,7.96,0,5.01,5.72,6.8,9.57,7.78l7.51,1.7c6.44.98,13.14,4.74,13.14,12.79,0,10.01-9.93,13.86-18.51,13.86-10.73,0-18.06-5.01-18.96-16.27h5.63c.45,7.6,5.96,11.53,13.59,11.53,5.28,0,12.61-2.32,12.61-8.76,0-5.37-5.01-7.15-10.1-8.41l-7.24-1.61c-7.33-1.97-12.88-4.47-12.88-12.34,0-9.39,9.21-12.97,17.35-12.97,9.21,0,16.54,4.83,16.9,14.9l-5.78-.06Z"/>
    <path class="cls-1" d="m442.92,25.27h5.63v8.94h-5.63v-8.94Zm0,17.7h5.63v46.14h-5.63v-46.14Z"/>
    <path class="cls-1" d="m468.31,42.97h9.39v4.74h-9.39v31.12c0,3.67.54,5.96,4.56,5.96,1.61,0,3.23-.09,4.83-.27v4.95c-1.7,0-3.31.18-5.01.18-7.51,0-10.1-2.5-10.01-10.37v-31.56h-8.05v-4.74h8.17v-13.86h5.63l-.12,13.86Z"/>
    <path class="cls-1" d="m480.68,42.97h5.96l15.2,39.34,14.22-39.34h5.63l-20.15,53.35c-3.22,7.78-5.1,10.01-12.16,10.01-1.44.07-2.89-.09-4.29-.45v-4.89c1.26.28,2.55.43,3.84.45,5.01,0,6.17-2.98,8.05-7.24l1.97-5.28-18.27-45.96Z"/>
    <path class="cls-1" d="m593.38,66.04c0,13.23-7.69,24.41-21.82,24.41s-21.82-11.18-21.82-24.41,7.69-24.41,21.82-24.41,21.82,11.18,21.82,24.41Zm-38,0c0,9.84,5.37,19.67,16.18,19.67s16.18-9.84,16.18-19.67-5.37-19.67-16.18-19.67-16.15,9.84-16.15,19.67h-.03Z"/>
    <path class="cls-1" d="m619.58,47.71h-9.12v41.4h-5.63v-41.4h-7.9v-4.74h7.87v-4.2c0-7.96,2.15-13.5,11.18-13.5,1.59,0,3.17.11,4.74.36v4.83c-1.35-.27-2.73-.42-4.11-.45-6.26,0-5.96,3.93-6.17,8.94v4.02h9.12l.03,4.74Z"/>
    <path class="cls-1" d="m697.55,44.58c-1.88-9.24-10.16-15.78-19.58-15.47-16.9,0-24.05,14.13-24.05,28.08s7.15,28.08,24.05,28.08c11.92,0,19.31-9.12,20.48-20.48h5.96c-1.7,15.65-11.62,25.66-26.56,25.66-20.12,0-30.13-15.83-30.13-33.26s10.01-33.26,30.13-33.26c11.92,0,24.05,7.24,25.66,20.66h-5.96Z"/>
    <path class="cls-1" d="m754.06,66.04c0,13.23-7.69,24.41-21.82,24.41s-21.82-11.18-21.82-24.41,7.69-24.41,21.82-24.41,21.82,11.18,21.82,24.41Zm-38,0c0,9.84,5.37,19.67,16.18,19.67s16.18-9.84,16.18-19.67-5.37-19.67-16.18-19.67-16.1,9.84-16.1,19.67h-.09Z"/>
    <path class="cls-1" d="m762.59,25.27h5.63v63.84h-5.63V25.27Z"/>
    <path class="cls-1" d="m820.47,66.04c0,13.23-7.69,24.41-21.82,24.41s-21.82-11.18-21.82-24.41,7.69-24.41,21.82-24.41,21.82,11.18,21.82,24.41Zm-38,0c0,9.84,5.37,19.67,16.18,19.67s16.18-9.84,16.18-19.67-5.37-19.67-16.18-19.67-16.33,9.84-16.33,19.67h.15Z"/>
    <path class="cls-1" d="m828.73,42.97h5.19v10.82h.18c2.53-7.34,9.7-12.05,17.44-11.45v5.63c-8.74-.72-16.41,5.79-17.13,14.54-.05.67-.07,1.34-.04,2.01v24.59h-5.63v-46.14Z"/>
    <path class="cls-1" d="m856.24,57.1c.54-10.82,8.14-15.47,18.69-15.47,8.14,0,16.99,2.5,16.99,14.9v24.5c-.24,1.63.89,3.14,2.52,3.38.3.04.6.04.9,0,.61-.02,1.22-.14,1.79-.36v4.74c-1.2.26-2.43.38-3.67.36-5.72,0-6.62-3.22-6.62-8.05h-.18c-3.27,6.15-9.87,9.78-16.81,9.27-8.49,0-15.47-4.2-15.47-13.5,0-12.97,12.61-13.41,24.77-14.9,4.65-.54,7.24-1.16,7.24-6.26,0-7.6-5.45-9.48-11.92-9.48s-12.16,3.22-12.34,10.73l-5.9.15Zm30.04,6.8h-.18c-.72,1.34-3.22,1.79-4.74,2.06-9.57,1.7-21.46,1.61-21.46,10.64.25,5.29,4.74,9.38,10.04,9.14.08,0,.16,0,.24-.01,8.58,0,16.18-5.45,16.1-14.49v-7.33Z"/>
    <path class="cls-1" d="m943.9,89.11h-5.19v-8.76h-.18c-3.14,6.19-9.51,10.07-16.45,10.01-14.04,0-20.86-11.36-20.86-24.41s6.71-24.41,20.86-24.41c6.93-.35,13.33,3.68,16.01,10.07h.18v-26.35h5.63v63.84Zm-21.82-3.4c11.92,0,16.18-10.1,16.18-19.67s-4.2-19.67-16.18-19.67c-10.73,0-15.11,10.1-15.11,19.67s4.38,19.67,15.11,19.67Z"/>
    <path class="cls-1" d="m995.94,66.04c0,13.23-7.69,24.41-21.82,24.41s-21.82-11.18-21.82-24.41,7.69-24.41,21.82-24.41,21.82,11.18,21.82,24.41Zm-38,0c0,9.84,5.37,19.67,16.18,19.67s16.18-9.84,16.18-19.67-5.37-19.67-16.18-19.67-16.18,9.84-16.18,19.67Z"/>
  </g>
  <g>
    <polygon class="cls-2" points="15.24 0 0 15.23 0 67.79 15.24 83 31.96 83 31.96 95.79 47.33 111.02 91.76 111.02 107.16 95.79 107.16 55.08 115.01 55.08 115.01 27.98 83.09 27.98 83.09 15.23 67.89 0 15.24 0"/>
    <polygon class="cls-1" points="67.24 1.58 81.51 15.88 81.51 29.56 113.43 29.56 113.43 53.52 105.58 53.52 105.58 95.14 91.11 109.44 47.98 109.44 33.54 95.14 33.54 81.42 15.9 81.42 1.58 67.12 1.58 15.88 15.9 1.58 67.24 1.58"/>
    <polygon class="cls-3" points="17.52 77.46 37.5 77.46 37.5 93.48 49.6 105.49 89.48 105.49 101.62 93.48 101.62 49.56 109.49 49.56 109.49 33.51 85.4 33.51 85.4 89.45 53.53 89.45 53.53 77.46 65.6 77.46 77.57 65.49 77.57 49.56 61.52 49.56 61.52 61.46 53.53 61.46 53.53 33.51 29.53 33.51 29.53 49.56 37.5 49.56 37.5 61.46 21.54 61.46 21.54 21.42 61.52 21.42 61.52 33.51 77.57 33.51 77.57 17.52 65.6 5.52 17.52 5.52 5.52 17.51 5.52 65.49 17.52 77.46"/>
    <polygon class="cls-2" points="51.56 75.49 64.78 75.49 75.59 64.67 75.59 51.53 63.49 51.53 63.49 63.43 51.56 63.43 51.56 35.48 31.51 35.48 31.51 47.59 39.47 47.59 39.47 63.43 19.57 63.43 19.57 19.45 63.49 19.45 63.49 31.54 75.59 31.54 75.59 18.33 64.78 7.51 18.35 7.51 7.49 18.33 7.49 64.67 18.35 75.49 39.47 75.49 39.47 92.66 50.42 103.52 88.68 103.52 99.66 92.66 99.66 47.59 107.5 47.59 107.5 35.48 87.37 35.48 87.37 91.42 51.56 91.42 51.56 75.49"/>
  </g>
</svg>