<svg xmlns="http://www.w3.org/2000/svg" id="Layer_1" version="1.1" viewBox="0 0 375.38 75.99"><defs><style>.st0{fill:#231f20}.st2{fill:#cfb87c}</style></defs><path d="M92.66 20.27h2.04v13.26c-.03 4.98 2.34 6.87 6.27 6.87s6.33-1.89 6.3-6.87V20.27h2.04v13.71c0 4.41-2.37 8.16-8.34 8.16s-8.31-3.75-8.31-8.16V20.27Zm20.37 5.94h1.89v2.67h.06c.69-1.86 2.76-3.12 4.95-3.12 4.35 0 5.67 2.28 5.67 5.97v9.96h-1.89v-9.66c0-2.67-.87-4.68-3.93-4.68s-4.8 2.28-4.86 5.31v9.03h-1.89V26.21Zm16.17-5.94h1.89v3.03h-1.89v-3.03Zm0 5.94h1.89v15.48h-1.89V26.21Zm3.78 0h2.1l4.86 13.59h.06l4.8-13.59h1.95l-5.79 15.48h-2.01l-5.97-15.48Zm16.74 8.25c.03 2.76 1.47 6.09 5.1 6.09 2.76 0 4.26-1.62 4.86-3.96h1.89c-.81 3.51-2.85 5.55-6.75 5.55-4.92 0-6.99-3.78-6.99-8.19 0-4.08 2.07-8.19 6.99-8.19s6.96 4.35 6.81 8.7h-11.91Zm10.02-1.59c-.09-2.85-1.86-5.52-4.92-5.52s-4.8 2.7-5.1 5.52h10.02Zm4.44-6.66h1.74v3.63h.06c.96-2.49 3.06-3.96 5.85-3.84v1.89c-3.42-.18-5.76 2.34-5.76 5.55v8.25h-1.89V26.21Zm18.72 4.53c-.09-2.34-1.89-3.39-4.05-3.39-1.68 0-3.66.66-3.66 2.67 0 1.68 1.92 2.28 3.21 2.61l2.52.57c2.16.33 4.41 1.59 4.41 4.29 0 3.36-3.33 4.65-6.21 4.65-3.6 0-6.06-1.68-6.36-5.46h1.89c.15 2.55 2.04 3.87 4.56 3.87 1.77 0 4.23-.78 4.23-2.94 0-1.8-1.68-2.4-3.39-2.82l-2.43-.54c-2.46-.66-4.32-1.5-4.32-4.14 0-3.15 3.09-4.35 5.82-4.35 3.09 0 5.55 1.62 5.67 4.98h-1.89Zm5.19-10.47h1.89v3.03h-1.89v-3.03Zm0 5.94h1.89v15.48h-1.89V26.21Zm8.52 0h3.15v1.59h-3.15v10.44c0 1.23.18 1.95 1.53 2.04.54 0 1.08-.03 1.62-.09v1.62c-.57 0-1.11.06-1.68.06-2.52 0-3.39-.84-3.36-3.48V27.8h-2.7v-1.59h2.7v-4.65h1.89v4.65Zm4.14 0h2.01l5.1 13.2 4.77-13.2h1.89l-6.72 17.85c-1.08 2.61-1.71 3.36-4.08 3.36-.75-.03-1.14-.03-1.44-.15v-1.59c.45.09.87.15 1.29.15 1.68 0 2.07-.99 2.7-2.43l.66-1.77-6.18-15.42Zm37.83 7.74c0 4.44-2.58 8.19-7.32 8.19s-7.32-3.75-7.32-8.19 2.58-8.19 7.32-8.19 7.32 3.75 7.32 8.19Zm-12.75 0c0 3.3 1.8 6.6 5.43 6.6s5.43-3.3 5.43-6.6-1.8-6.6-5.43-6.6-5.43 3.3-5.43 6.6Zm21.54-6.15h-3.06v13.89h-1.89V27.8h-2.64v-1.59h2.64V24.8c-.03-2.67.72-4.53 3.75-4.53.54 0 .99.03 1.59.12v1.62c-.51-.09-.93-.15-1.38-.15-2.1 0-2.04 1.32-2.07 3v1.35h3.06v1.59Zm26.16-1.05c-.72-3.3-3.45-5.19-6.57-5.19-5.67 0-8.07 4.74-8.07 9.42s2.4 9.42 8.07 9.42c3.96 0 6.48-3.06 6.87-6.87h2.04c-.57 5.25-3.9 8.61-8.91 8.61-6.75 0-10.11-5.31-10.11-11.16s3.36-11.16 10.11-11.16c4.05 0 8.07 2.43 8.61 6.93h-2.04Zm18.96 7.2c0 4.44-2.58 8.19-7.32 8.19s-7.32-3.75-7.32-8.19 2.58-8.19 7.32-8.19 7.32 3.75 7.32 8.19Zm-12.75 0c0 3.3 1.8 6.6 5.43 6.6s5.43-3.3 5.43-6.6-1.8-6.6-5.43-6.6-5.43 3.3-5.43 6.6Zm15.6-13.68h1.89v21.42h-1.89V20.27Zm19.38 13.68c0 4.44-2.58 8.19-7.32 8.19s-7.32-3.75-7.32-8.19 2.58-8.19 7.32-8.19 7.32 3.75 7.32 8.19Zm-12.75 0c0 3.3 1.8 6.6 5.43 6.6s5.43-3.3 5.43-6.6-1.8-6.6-5.43-6.6-5.43 3.3-5.43 6.6Zm15.57-7.74h1.74v3.63h.06c.96-2.49 3.06-3.96 5.85-3.84v1.89c-3.42-.18-5.76 2.34-5.76 5.55v8.25h-1.89V26.21Zm9.27 4.74c.18-3.63 2.73-5.19 6.27-5.19 2.73 0 5.7.84 5.7 4.98v8.22c0 .72.36 1.14 1.11 1.14.21 0 .45-.06.6-.12v1.59c-.42.09-.72.12-1.23.12-1.92 0-2.22-1.08-2.22-2.7h-.06c-1.32 2.01-2.67 3.15-5.64 3.15s-5.19-1.41-5.19-4.53c0-4.35 4.23-4.5 8.31-4.98 1.56-.18 2.43-.39 2.43-2.1 0-2.55-1.83-3.18-4.05-3.18-2.34 0-4.08 1.08-4.14 3.6h-1.89Zm10.08 2.28h-.06c-.24.45-1.08.6-1.59.69-3.21.57-7.2.54-7.2 3.57 0 1.89 1.68 3.06 3.45 3.06 2.88 0 5.43-1.83 5.4-4.86v-2.46Zm19.29 8.46h-1.74v-2.94h-.06c-.81 2.01-3.27 3.39-5.52 3.39-4.71 0-6.96-3.81-6.96-8.19s2.25-8.19 6.96-8.19c2.31 0 4.56 1.17 5.37 3.39h.06v-8.88h1.89v21.42Zm-7.32-1.14c4.02 0 5.43-3.39 5.43-6.6s-1.41-6.6-5.43-6.6c-3.6 0-5.07 3.39-5.07 6.6s1.47 6.6 5.07 6.6Zm24.78-6.6c0 4.44-2.58 8.19-7.32 8.19S359 38.39 359 33.95s2.58-8.19 7.32-8.19 7.32 3.75 7.32 8.19Zm-12.75 0c0 3.3 1.8 6.6 5.43 6.6s5.43-3.3 5.43-6.6-1.8-6.6-5.43-6.6-5.43 3.3-5.43 6.6Z" class="st0"/><path d="M10.66 2.11.83 11.93v33.89l9.83 9.81h10.78v8.25l9.91 9.82h28.64l9.94-9.81V37.63h5.05V20.15H54.4v-8.22l-9.79-9.82H10.66Z" class="st2"/><path d="m44.19 3.13 9.19 9.22v8.82h20.59v15.45h-5.06v26.84l-9.33 9.22H31.76l-9.3-9.22v-8.85H11.07l-9.23-9.22V12.35l9.23-9.22h33.12Z" class="st0"/><path d="M12.13 52.06H25v10.33l7.81 7.74h25.72l7.83-7.74V34.07h5.06V23.72H55.9v36.07H35.35v-7.73h7.77l7.72-7.72V34.07H40.49v7.67h-5.14V23.72H19.87v10.35H25v7.67H14.72V15.92h25.77v7.8h10.35V13.41l-7.72-7.74H12.13L4.39 13.4v30.94l7.74 7.72Z" style="fill:#fff"/><path d="M34.07 50.79h8.53l6.97-6.98v-8.47h-7.8v7.67h-7.7V24.99H21.14v7.81h5.14v10.21H13.44V14.65h28.33v7.8h7.8v-8.52L42.6 6.95H12.66l-7 6.98v29.88l7 6.98h13.62v11.07l7.06 7.01h24.67l7.08-7.01V32.8h5.06v-7.81H57.17v36.07h-23.1V50.79Z" class="st2"/><path d="M97.52 63.98h-3.91v-8.64h4.2c1.06.02 1.81.32 2.25.92.27.37.4.81.4 1.32s-.13.95-.4 1.27c-.15.18-.37.34-.66.49.44.16.77.41 1 .76s.34.77.34 1.27-.13.97-.39 1.38c-.16.27-.37.5-.62.68-.28.21-.6.36-.98.43s-.79.12-1.23.12Zm.86-5.45c.23-.14.35-.39.35-.76 0-.4-.16-.67-.47-.8-.27-.09-.61-.13-1.03-.13h-1.9v1.9h2.12c.38 0 .69-.07.93-.22Zm-.9 1.64h-2.15v2.3h2.12c.38 0 .67-.05.88-.15.38-.19.57-.55.57-1.08 0-.45-.19-.76-.56-.93-.21-.09-.5-.14-.87-.15h.01Zm10.19-1.77c.54.68.81 1.47.81 2.4s-.27 1.74-.81 2.41-1.36 1-2.46 1-1.92-.33-2.46-1-.81-1.47-.81-2.41.27-1.72.81-2.4 1.36-1.01 2.46-1.01 1.92.34 2.46 1.01Zm-2.46.4c-.49 0-.86.17-1.13.52s-.4.84-.4 1.48.13 1.13.4 1.48.64.52 1.13.52.86-.17 1.12-.52.39-.84.39-1.48-.13-1.13-.39-1.48-.64-.52-1.12-.52Zm8.8 4.27s-.05.08-.12.18-.14.18-.22.26c-.26.23-.51.39-.76.48s-.53.13-.86.13c-.95 0-1.58-.34-1.91-1.02-.18-.38-.28-.93-.28-1.66v-3.85h1.71v3.85c0 .36.04.64.13.82.15.32.45.49.9.49.57 0 .96-.23 1.17-.69.11-.25.16-.58.16-.99V57.6h1.69v6.39H114v-.92Zm3.51-7.73h1.67v8.64h-1.67v-8.64Zm9.36.01v8.62h-1.62v-.88c-.24.38-.51.65-.81.83s-.68.26-1.14.26c-.75 0-1.37-.3-1.88-.91s-.76-1.38-.76-2.32c0-1.09.25-1.95.75-2.57s1.17-.94 2.01-.94c.39 0 .73.08 1.03.25s.54.41.73.71v-3.05h1.69Zm-4.5 5.47c0 .59.12 1.06.35 1.41.23.36.58.53 1.05.53s.83-.18 1.08-.53.37-.81.37-1.37c0-.78-.2-1.34-.59-1.68-.24-.2-.52-.3-.84-.3-.49 0-.85.18-1.08.55s-.34.83-.34 1.37v.02Zm11.72 1.28c-.04.38-.24.76-.59 1.15-.55.62-1.31.93-2.3.93-.81 0-1.53-.26-2.15-.79s-.93-1.38-.93-2.55.28-1.95.84-2.54 1.29-.88 2.18-.88c.53 0 1.01.1 1.44.3s.78.51 1.05.94c.25.38.41.82.49 1.32.04.29.06.71.05 1.27h-4.37c.02.64.22 1.09.6 1.35.23.16.51.24.83.24.34 0 .62-.1.84-.29.12-.11.22-.25.31-.44h1.71Zm-1.65-1.96c-.03-.44-.16-.78-.4-1s-.54-.34-.89-.34c-.39 0-.69.12-.9.36s-.35.57-.4.98h2.6-.01Zm6.31-1.01c-.67 0-1.12.22-1.35.66-.13.25-.19.62-.19 1.14v3.05h-1.68v-6.39h1.59v1.11c.26-.43.48-.72.67-.87.31-.26.72-.39 1.22-.39h.22v1.71c-.11-.01-.2-.02-.28-.02h-.2Zm5.11 4.85v-8.72h1.54v8.72h-1.54Zm13.56-.65c-.64.59-1.47.88-2.47.88-1.24 0-2.22-.4-2.93-1.2-.71-.8-1.07-1.9-1.07-3.29 0-1.51.4-2.67 1.21-3.49.7-.71 1.6-1.07 2.68-1.07 1.45 0 2.52.48 3.19 1.43.37.54.57 1.07.6 1.61h-1.8c-.12-.41-.27-.73-.45-.94-.33-.38-.81-.56-1.46-.56s-1.17.26-1.55.79-.57 1.28-.57 2.25.2 1.69.6 2.18c.4.48.91.72 1.53.72s1.12-.21 1.45-.62c.18-.22.34-.56.46-1h1.79c-.16.94-.55 1.71-1.2 2.3Zm8-4.93c.54.68.81 1.47.81 2.4s-.27 1.74-.81 2.41-1.36 1-2.46 1-1.92-.33-2.46-1-.81-1.47-.81-2.41.27-1.72.81-2.4 1.36-1.01 2.46-1.01 1.92.34 2.46 1.01Zm-2.46.4c-.49 0-.86.17-1.13.52s-.4.84-.4 1.48.13 1.13.4 1.48.64.52 1.13.52.86-.17 1.12-.52.39-.84.39-1.48-.13-1.13-.39-1.48-.64-.52-1.12-.52Zm4.74-3.46h1.67v8.64h-1.67v-8.64Zm8.87 3.06c.54.68.81 1.47.81 2.4s-.27 1.74-.81 2.41-1.36 1-2.46 1-1.92-.33-2.46-1-.81-1.47-.81-2.41.27-1.72.81-2.4 1.36-1.01 2.46-1.01 1.92.34 2.46 1.01Zm-2.46.4c-.49 0-.86.17-1.13.52s-.4.84-.4 1.48.13 1.13.4 1.48.64.52 1.13.52.86-.17 1.12-.52.39-.84.39-1.48-.13-1.13-.39-1.48-.64-.52-1.12-.52Zm7.91.33c-.67 0-1.12.22-1.35.66-.13.25-.19.62-.19 1.14v3.05h-1.68v-6.39h1.59v1.11c.26-.43.48-.72.67-.87.31-.26.72-.39 1.22-.39h.22v1.71c-.11-.01-.2-.02-.28-.02h-.2Zm1.94-.85c.44-.56 1.2-.84 2.27-.84.7 0 1.32.14 1.86.42s.81.8.81 1.57v3.67c0 .22.04.37.1.45s.14.14.25.19v.25h-1.82c-.05-.13-.09-.25-.11-.36s-.04-.24-.05-.39c-.23.25-.5.46-.8.64-.36.21-.77.31-1.22.31-.58 0-1.06-.17-1.43-.5s-.57-.8-.57-1.4c0-.79.3-1.35.91-1.71.33-.19.82-.33 1.46-.41l.57-.07c.31-.04.53-.09.66-.15.24-.1.36-.26.36-.47 0-.26-.09-.44-.27-.54s-.45-.15-.8-.15c-.39 0-.67.1-.84.29-.12.14-.2.34-.23.59h-1.61c.04-.56.19-1.02.47-1.38h.02Zm1.24 4.49c.16.13.35.19.57.19.36 0 .69-.11.99-.32s.46-.6.47-1.15v-.62c-.11.07-.21.12-.32.16s-.25.08-.44.11l-.38.07c-.35.06-.6.14-.76.23-.26.15-.39.39-.39.71 0 .29.08.49.24.62h.02Zm11.25-7.42v8.62h-1.62v-.88c-.24.38-.51.65-.81.83s-.68.26-1.14.26c-.75 0-1.37-.3-1.88-.91s-.76-1.38-.76-2.32c0-1.09.25-1.95.75-2.57s1.17-.94 2.01-.94c.39 0 .73.08 1.03.25s.54.41.73.71v-3.05h1.69Zm-4.5 5.47c0 .59.12 1.06.35 1.41.23.36.58.53 1.05.53s.83-.18 1.08-.53.37-.81.37-1.37c0-.78-.2-1.34-.59-1.68-.24-.2-.52-.3-.84-.3-.49 0-.85.18-1.08.55s-.34.83-.34 1.37v.02Zm11.58-2.42c.54.68.81 1.47.81 2.4s-.27 1.74-.81 2.41-1.36 1-2.46 1-1.92-.33-2.46-1-.81-1.47-.81-2.41.27-1.72.81-2.4 1.36-1.01 2.46-1.01 1.92.34 2.46 1.01Zm-2.46.4c-.49 0-.86.17-1.13.52s-.4.84-.4 1.48.13 1.13.4 1.48.64.52 1.13.52.86-.17 1.12-.52.39-.84.39-1.48-.13-1.13-.39-1.48-.64-.52-1.12-.52Zm11.55 3.93c.43 0 .77-.05 1.04-.14.5-.18.76-.51.76-1a.718.718 0 0 0-.38-.66c-.25-.15-.64-.29-1.18-.4l-.91-.21c-.9-.2-1.52-.42-1.86-.66-.58-.4-.87-1.02-.87-1.87 0-.77.28-1.42.84-1.93s1.39-.77 2.48-.77c.91 0 1.69.24 2.33.72s.98 1.18 1.01 2.1h-1.73c-.03-.52-.26-.89-.68-1.11-.28-.14-.63-.22-1.05-.22-.46 0-.84.09-1.11.28s-.42.45-.42.79c0 .31.14.54.41.69.18.1.55.22 1.12.36l1.49.36c.65.16 1.14.37 1.48.63.52.41.77.99.77 1.76s-.3 1.44-.91 1.97c-.6.52-1.46.78-2.56.78s-2.01-.26-2.65-.77-.97-1.22-.97-2.12h1.72c.05.39.16.69.32.88.29.36.79.53 1.51.53Zm10.32-4.46c.52.55.77 1.36.77 2.43s-.25 1.98-.76 2.57-1.16.88-1.95.88c-.51 0-.93-.13-1.27-.38-.18-.14-.36-.35-.54-.62v3.33h-1.65v-8.9h1.6v.94c.18-.28.37-.5.57-.66.37-.29.81-.43 1.32-.43.75 0 1.38.28 1.9.83Zm-.95 2.51c0-.49-.11-.93-.34-1.31s-.59-.57-1.09-.57c-.61 0-1.02.29-1.25.86-.12.3-.18.69-.18 1.16 0 .74.2 1.26.59 1.56.23.18.51.26.83.26.46 0 .82-.18 1.06-.54s.37-.84.37-1.44v.02Zm6.38-1.65c-.67 0-1.12.22-1.35.66-.13.25-.19.62-.19 1.14v3.05h-1.68v-6.39h1.59v1.11c.26-.43.48-.72.67-.87.31-.26.72-.39 1.22-.39h.22v1.71c-.11-.01-.2-.02-.28-.02h-.2Zm3.42-3.84v1.54h-1.69v-1.54h1.69Zm0 2.3v6.39h-1.69v-6.39h1.69Zm4.86 1.23c-.57 0-.96.24-1.17.72-.11.25-.16.58-.16.97v3.46h-1.66v-6.38h1.61v.93c.21-.33.42-.56.61-.71.34-.26.78-.39 1.31-.39.66 0 1.2.17 1.62.52s.63.92.63 1.72v4.3h-1.71v-3.88c0-.34-.04-.59-.13-.77-.16-.33-.48-.49-.94-.49Zm6.37 6.27c.18.15.48.23.91.23.6 0 1-.2 1.21-.6.13-.26.2-.69.2-1.3v-.41c-.16.27-.33.48-.52.62-.33.25-.76.38-1.29.38-.82 0-1.48-.29-1.97-.86s-.74-1.36-.74-2.34.24-1.75.71-2.39 1.14-.97 2.01-.97c.32 0 .6.05.84.15.41.17.73.48.98.93v-.92h1.62v6.06c0 .82-.14 1.45-.42 1.86-.48.72-1.39 1.08-2.74 1.08-.82 0-1.48-.16-2-.48s-.8-.8-.86-1.44h1.82c.05.2.12.34.23.42v-.02Zm-.28-3.29c.23.54.63.81 1.22.81.39 0 .72-.15.99-.44s.4-.76.4-1.41c0-.61-.13-1.07-.38-1.38s-.6-.47-1.03-.47c-.59 0-.99.28-1.21.83-.12.29-.18.65-.18 1.08 0 .37.06.7.19.99Zm10.45-3.92c.5.32.79.87.86 1.65h-1.67a.954.954 0 0 0-.18-.51c-.18-.23-.5-.34-.94-.34-.36 0-.62.06-.78.17s-.23.25-.23.4c0 .19.08.33.25.42.16.09.74.24 1.74.46.66.16 1.16.39 1.49.71s.49.72.49 1.2c0 .63-.24 1.15-.71 1.55s-1.2.6-2.18.6-1.75-.21-2.22-.64-.72-.96-.72-1.62h1.69c.04.3.11.51.23.63.21.22.59.33 1.15.33.33 0 .59-.05.78-.15s.29-.24.29-.44-.08-.33-.23-.43-.74-.27-1.74-.5c-.72-.18-1.23-.4-1.53-.67s-.45-.65-.45-1.15c0-.59.23-1.1.69-1.52s1.11-.64 1.95-.64 1.45.16 1.95.47l.02.02Zm5.93 6.1v-8.72h1.54v8.72h-1.54Zm11.18 0h-3.72v-8.64h3.72c.54 0 .98.07 1.34.19.61.2 1.1.56 1.47 1.1.3.43.51.89.62 1.39s.16.98.16 1.43c0 1.15-.23 2.12-.69 2.92-.62 1.07-1.59 1.61-2.89 1.61Zm1.34-6.44c-.28-.47-.83-.7-1.65-.7h-1.66v5.64H270c.85 0 1.45-.42 1.78-1.26.18-.46.28-1.01.28-1.65 0-.88-.14-1.55-.41-2.03Zm9.18 4.56c-.04.38-.24.76-.59 1.15-.55.62-1.31.93-2.3.93-.81 0-1.53-.26-2.15-.79s-.93-1.38-.93-2.55.28-1.95.84-2.54 1.29-.88 2.18-.88c.53 0 1.01.1 1.44.3s.78.51 1.05.94c.25.38.41.82.49 1.32.04.29.06.71.05 1.27h-4.37c.02.64.22 1.09.6 1.35.23.16.51.24.83.24.34 0 .62-.1.84-.29.12-.11.22-.25.31-.44h1.71Zm-1.65-1.96c-.03-.44-.16-.78-.4-1s-.54-.34-.89-.34c-.39 0-.69.12-.9.36s-.35.57-.4.98h2.6-.01Zm6.1-1.32c-.57 0-.96.24-1.17.72-.11.25-.16.58-.16.97v3.46h-1.66v-6.38h1.61v.93c.21-.33.42-.56.61-.71.34-.26.78-.39 1.31-.39.66 0 1.2.17 1.62.52s.63.92.63 1.72v4.3h-1.71v-3.88c0-.34-.04-.59-.13-.77-.16-.33-.48-.49-.94-.49Zm3.94-1.23h1.88l1.33 4.71 1.36-4.71h1.79l-2.3 6.39h-1.76l-2.29-6.39Zm13.01 4.51c-.04.38-.24.76-.59 1.15-.55.62-1.31.93-2.3.93-.81 0-1.53-.26-2.15-.79s-.93-1.38-.93-2.55.28-1.95.84-2.54 1.29-.88 2.18-.88c.53 0 1.01.1 1.44.3s.78.51 1.05.94c.25.38.41.82.49 1.32.04.29.06.71.05 1.27h-4.37c.02.64.22 1.09.6 1.35.23.16.51.24.83.24.34 0 .62-.1.84-.29.12-.11.22-.25.31-.44h1.71Zm-1.66-1.96c-.03-.44-.16-.78-.4-1s-.54-.34-.89-.34c-.39 0-.69.12-.9.36s-.35.57-.4.98h2.6-.01Zm6.32-1.01c-.67 0-1.12.22-1.35.66-.13.25-.19.62-.19 1.14v3.05h-1.68v-6.39h1.59v1.11c.26-.43.48-.72.67-.87.31-.26.72-.39 1.22-.39h.22v1.71c-.11-.01-.2-.02-.28-.02h-.2Zm5.11 4.85v-8.72h1.54v8.72H312Zm12.08-1.78h-3.18l-.6 1.78h-1.89l3.08-8.64h2.04l3.06 8.64h-1.96l-.56-1.78h.01Zm-.5-1.49-1.08-3.4-1.11 3.4h2.19Zm7.22-1.89c-.57 0-.96.24-1.17.72-.11.25-.16.58-.16.97v3.46h-1.66v-6.38h1.61v.93c.21-.33.42-.56.61-.71.34-.26.78-.39 1.31-.39.66 0 1.2.17 1.62.52s.63.92.63 1.72v4.3h-1.71v-3.88c0-.34-.04-.59-.13-.77-.16-.33-.48-.49-.94-.49Zm8.97-.94c.5.32.79.87.86 1.65h-1.67a.954.954 0 0 0-.18-.51c-.18-.23-.5-.34-.94-.34-.36 0-.62.06-.78.17s-.23.25-.23.4c0 .19.08.33.25.42.16.09.74.24 1.74.46.66.16 1.16.39 1.49.71s.49.72.49 1.2c0 .63-.24 1.15-.71 1.55s-1.2.6-2.18.6-1.75-.21-2.22-.64-.72-.96-.72-1.62h1.69c.04.3.11.51.23.63.21.22.59.33 1.15.33.33 0 .59-.05.78-.15s.29-.24.29-.44-.08-.33-.23-.43-.74-.27-1.74-.5c-.72-.18-1.23-.4-1.53-.67s-.45-.65-.45-1.15c0-.59.23-1.1.69-1.52s1.11-.64 1.95-.64 1.45.16 1.95.47l.02.02Zm8.04 2h-1.71c-.03-.24-.11-.45-.24-.64-.19-.26-.48-.39-.87-.39-.56 0-.95.28-1.15.84-.11.3-.16.69-.16 1.18s.05.85.16 1.13c.2.53.57.8 1.12.8.39 0 .67-.11.83-.32s.26-.48.3-.82h1.71c-.04.51-.22.99-.55 1.44-.52.73-1.3 1.1-2.33 1.1s-1.78-.3-2.27-.91-.73-1.4-.73-2.37c0-1.1.27-1.95.8-2.56s1.27-.91 2.21-.91c.8 0 1.46.18 1.97.54s.81.99.91 1.9Zm7.16.35v3.75h-1.71V60.1c0-.34-.06-.62-.18-.83-.15-.3-.44-.45-.87-.45s-.78.15-1 .44-.34.72-.34 1.26v3.46h-1.66v-8.61h1.66v3.05c.24-.37.52-.63.84-.78s.65-.22 1-.22c.39 0 .75.07 1.08.21s.59.35.79.63c.18.24.28.48.32.74s.06.66.06 1.23Zm5.89 2.84s-.05.08-.12.18-.14.18-.22.26c-.26.23-.51.39-.76.48s-.53.13-.86.13c-.95 0-1.58-.34-1.91-1.02-.18-.38-.28-.93-.28-1.66v-3.85h1.71v3.85c0 .36.04.64.13.82.15.32.45.49.9.49.57 0 .96-.23 1.17-.69.11-.25.16-.58.16-.99V57.6h1.69v6.39h-1.62v-.92Zm6.4-.28v1.25l-.79.03c-.79.03-1.33-.11-1.62-.41-.19-.19-.28-.49-.28-.88v-3.93h-.89v-1.19h.89v-1.78h1.65v1.78h1.04v1.19h-1.04v3.38c0 .26.03.42.1.49s.27.1.61.1h.33v-.03Zm6.24 1.19h-5.51v-1.3l3.28-3.73h-3.05v-1.36h5.18v1.39l-3.24 3.63h3.35v1.37h-.01Z" class="st0"/></svg>