<?xml version="1.0" encoding="utf-8"?>
<!-- Generator: Adobe Illustrator 21.1.0, SVG Export Plug-In . SVG Version: 6.00 Build 0)  -->
<svg version="1.1" id="Layer_1" xmlns="http://www.w3.org/2000/svg" xmlns:xlink="http://www.w3.org/1999/xlink" x="0px" y="0px"
	 viewBox="0 0 396 108" enable-background="new 0 0 396 108" xml:space="preserve">
<g>
	<path fill="#FFFFFF" d="M103.2,35.6h2v13.3c0,5,2.3,6.9,6.3,6.9c4,0,6.3-1.9,6.3-6.9V35.6h2v13.7c0,4.4-2.4,8.2-8.3,8.2
		c-5.9,0-8.3-3.8-8.3-8.2V35.6z"/>
	<path fill="#FFFFFF" d="M123.5,41.5h1.9v2.7h0.1c0.7-1.9,2.8-3.1,4.9-3.1c4.4,0,5.7,2.3,5.7,6v10h-1.9v-9.7c0-2.7-0.9-4.7-3.9-4.7
		c-3,0-4.8,2.3-4.9,5.3v9h-1.9V41.5z"/>
	<path fill="#FFFFFF" d="M139.7,35.6h1.9v3h-1.9V35.6z M139.7,41.5h1.9V57h-1.9V41.5z"/>
	<path fill="#FFFFFF" d="M143.5,41.5h2.1l4.9,13.6h0.1l4.8-13.6h2L151.5,57h-2L143.5,41.5z"/>
	<path fill="#FFFFFF" d="M160.2,49.8c0,2.8,1.5,6.1,5.1,6.1c2.8,0,4.3-1.6,4.9-4h1.9c-0.8,3.5-2.8,5.5-6.7,5.5c-4.9,0-7-3.8-7-8.2
		c0-4.1,2.1-8.2,7-8.2c5,0,7,4.4,6.8,8.7H160.2z M170.2,48.2c-0.1-2.9-1.9-5.5-4.9-5.5c-3.1,0-4.8,2.7-5.1,5.5H170.2z"/>
	<path fill="#FFFFFF" d="M174.7,41.5h1.7v3.6h0.1c1-2.5,3.1-4,5.8-3.8v1.9c-3.4-0.2-5.8,2.3-5.8,5.5V57h-1.9V41.5z"/>
	<path fill="#FFFFFF" d="M193.4,46c-0.1-2.3-1.9-3.4-4-3.4c-1.7,0-3.7,0.7-3.7,2.7c0,1.7,1.9,2.3,3.2,2.6l2.5,0.6
		c2.2,0.3,4.4,1.6,4.4,4.3c0,3.4-3.3,4.7-6.2,4.7c-3.6,0-6.1-1.7-6.4-5.5h1.9c0.1,2.5,2,3.9,4.6,3.9c1.8,0,4.2-0.8,4.2-2.9
		c0-1.8-1.7-2.4-3.4-2.8l-2.4-0.5c-2.5-0.7-4.3-1.5-4.3-4.1c0-3.2,3.1-4.4,5.8-4.4c3.1,0,5.5,1.6,5.7,5H193.4z"/>
	<path fill="#FFFFFF" d="M198.6,35.6h1.9v3h-1.9V35.6z M198.6,41.5h1.9V57h-1.9V41.5z"/>
	<path fill="#FFFFFF" d="M207.1,41.5h3.1v1.6h-3.1v10.4c0,1.2,0.2,2,1.5,2c0.5,0,1.1,0,1.6-0.1v1.6c-0.6,0-1.1,0.1-1.7,0.1
		c-2.5,0-3.4-0.8-3.4-3.5V43.1h-2.7v-1.6h2.7v-4.6h1.9V41.5z"/>
	<path fill="#FFFFFF" d="M211.2,41.5h2l5.1,13.2l4.8-13.2h1.9l-6.7,17.8c-1.1,2.6-1.7,3.4-4.1,3.4c-0.8,0-1.1,0-1.4-0.1V61
		c0.5,0.1,0.9,0.1,1.3,0.1c1.7,0,2.1-1,2.7-2.4l0.7-1.8L211.2,41.5z"/>
	<path fill="#FFFFFF" d="M249.1,49.3c0,4.4-2.6,8.2-7.3,8.2c-4.7,0-7.3-3.8-7.3-8.2c0-4.4,2.6-8.2,7.3-8.2
		C246.5,41.1,249.1,44.8,249.1,49.3z M236.3,49.3c0,3.3,1.8,6.6,5.4,6.6c3.6,0,5.4-3.3,5.4-6.6s-1.8-6.6-5.4-6.6
		C238.1,42.7,236.3,46,236.3,49.3z"/>
	<path fill="#FFFFFF" d="M257.9,43.1h-3.1V57h-1.9V43.1h-2.6v-1.6h2.6v-1.4c0-2.7,0.7-4.5,3.7-4.5c0.5,0,1,0,1.6,0.1v1.6
		c-0.5-0.1-0.9-0.1-1.4-0.1c-2.1,0-2,1.3-2.1,3v1.3h3.1V43.1z"/>
	<path fill="#FFFFFF" d="M284,42.1c-0.7-3.3-3.5-5.2-6.6-5.2c-5.7,0-8.1,4.7-8.1,9.4c0,4.7,2.4,9.4,8.1,9.4c4,0,6.5-3.1,6.9-6.9h2
		c-0.6,5.2-3.9,8.6-8.9,8.6c-6.8,0-10.1-5.3-10.1-11.2c0-5.8,3.4-11.2,10.1-11.2c4,0,8.1,2.4,8.6,6.9H284z"/>
	<path fill="#FFFFFF" d="M303,49.3c0,4.4-2.6,8.2-7.3,8.2c-4.7,0-7.3-3.8-7.3-8.2c0-4.4,2.6-8.2,7.3-8.2
		C300.4,41.1,303,44.8,303,49.3z M290.2,49.3c0,3.3,1.8,6.6,5.4,6.6c3.6,0,5.4-3.3,5.4-6.6s-1.8-6.6-5.4-6.6
		C292,42.7,290.2,46,290.2,49.3z"/>
	<path fill="#FFFFFF" d="M305.8,35.6h1.9V57h-1.9V35.6z"/>
	<path fill="#FFFFFF" d="M325.2,49.3c0,4.4-2.6,8.2-7.3,8.2c-4.7,0-7.3-3.8-7.3-8.2c0-4.4,2.6-8.2,7.3-8.2
		C322.6,41.1,325.2,44.8,325.2,49.3z M312.5,49.3c0,3.3,1.8,6.6,5.4,6.6c3.6,0,5.4-3.3,5.4-6.6s-1.8-6.6-5.4-6.6
		C314.3,42.7,312.5,46,312.5,49.3z"/>
	<path fill="#FFFFFF" d="M328,41.5h1.7v3.6h0.1c1-2.5,3.1-4,5.8-3.8v1.9c-3.4-0.2-5.8,2.3-5.8,5.5V57H328V41.5z"/>
	<path fill="#FFFFFF" d="M337.3,46.3c0.2-3.6,2.7-5.2,6.3-5.2c2.7,0,5.7,0.8,5.7,5v8.2c0,0.7,0.4,1.1,1.1,1.1c0.2,0,0.5-0.1,0.6-0.1
		v1.6c-0.4,0.1-0.7,0.1-1.2,0.1c-1.9,0-2.2-1.1-2.2-2.7h-0.1c-1.3,2-2.7,3.2-5.6,3.2c-2.8,0-5.2-1.4-5.2-4.5c0-4.3,4.2-4.5,8.3-5
		c1.6-0.2,2.4-0.4,2.4-2.1c0-2.5-1.8-3.2-4-3.2c-2.3,0-4.1,1.1-4.1,3.6H337.3z M347.4,48.5L347.4,48.5c-0.3,0.5-1.1,0.6-1.6,0.7
		c-3.2,0.6-7.2,0.5-7.2,3.6c0,1.9,1.7,3.1,3.5,3.1c2.9,0,5.4-1.8,5.4-4.9V48.5z"/>
	<path fill="#FFFFFF" d="M366.7,57h-1.7v-2.9h-0.1c-0.8,2-3.3,3.4-5.5,3.4c-4.7,0-7-3.8-7-8.2s2.2-8.2,7-8.2c2.3,0,4.6,1.2,5.4,3.4
		h0.1v-8.9h1.9V57z M359.4,55.9c4,0,5.4-3.4,5.4-6.6c0-3.2-1.4-6.6-5.4-6.6c-3.6,0-5.1,3.4-5.1,6.6
		C354.3,52.5,355.8,55.9,359.4,55.9z"/>
	<path fill="#FFFFFF" d="M384.1,49.3c0,4.4-2.6,8.2-7.3,8.2c-4.7,0-7.3-3.8-7.3-8.2c0-4.4,2.6-8.2,7.3-8.2
		C381.6,41.1,384.1,44.8,384.1,49.3z M371.4,49.3c0,3.3,1.8,6.6,5.4,6.6c3.6,0,5.4-3.3,5.4-6.6s-1.8-6.6-5.4-6.6
		C373.2,42.7,371.4,46,371.4,49.3z"/>
</g>
<line fill="#FFFFFF" stroke="#FFFFFF" x1="140.3" y1="69.7" x2="140.3" y2="80.5"/>
<line fill="#FFFFFF" stroke="#FFFFFF" x1="224.8" y1="69.9" x2="224.8" y2="80.8"/>
<line fill="#FFFFFF" stroke="#FFFFFF" x1="263.9" y1="69.7" x2="263.9" y2="80.5"/>
<g>
	<path fill="#FFFFFF" d="M102.9,71.6h2.3c0.6,0,1.3,0,1.7,0.2c0.4,0.3,0.8,0.7,0.8,1.3c0,0.7-0.4,1.2-1,1.4v0
		c0.8,0.2,1.2,0.8,1.2,1.5c0,0.9-0.7,1.8-2,1.8h-3.1V71.6z M103.8,74.3h1.7c1,0,1.4-0.4,1.4-1c0-0.9-0.6-1-1.4-1h-1.7V74.3z
		 M103.8,77.3h2.1c0.7,0,1.2-0.4,1.2-1.2c0-0.8-0.7-1.1-1.4-1.1h-2V77.3z"/>
	<path fill="#FFFFFF" d="M111.3,73.2c1.5,0,2.3,1.1,2.3,2.4c0,1.4-0.8,2.4-2.3,2.4c-1.5,0-2.3-1.1-2.3-2.4
		C109.1,74.3,109.8,73.2,111.3,73.2z M111.3,77.4c0.8,0,1.4-0.6,1.4-1.8c0-1.1-0.6-1.8-1.4-1.8s-1.4,0.6-1.4,1.8
		C109.9,76.8,110.5,77.4,111.3,77.4z"/>
	<path fill="#FFFFFF" d="M118.7,78H118v-0.7h0c-0.3,0.6-0.8,0.8-1.5,0.8c-1.2,0-1.6-0.7-1.6-1.7v-3.1h0.8v3.2c0,0.6,0.4,0.9,0.9,0.9
		c0.9,0,1.4-0.6,1.4-1.5v-2.6h0.8V78z"/>
	<path fill="#FFFFFF" d="M120.2,71.6h0.8V78h-0.8V71.6z"/>
	<path fill="#FFFFFF" d="M126.7,78H126v-0.6h0c-0.3,0.5-0.8,0.7-1.5,0.7c-1.4,0-2.1-1.1-2.1-2.4c0-1.3,0.7-2.4,2.1-2.4
		c0.5,0,1.2,0.2,1.5,0.7h0v-2.4h0.8V78z M124.6,77.4c1,0,1.4-0.9,1.4-1.8c0-0.9-0.4-1.8-1.5-1.8c-1,0-1.4,0.9-1.4,1.8
		C123.1,76.6,123.6,77.4,124.6,77.4z"/>
	<path fill="#FFFFFF" d="M132.2,76.5c-0.2,1-0.9,1.6-2,1.6c-1.5,0-2.2-1-2.2-2.4c0-1.4,0.9-2.4,2.2-2.4c1.6,0,2.2,1.5,2.1,2.7h-3.5
		c0,0.8,0.4,1.5,1.4,1.5c0.6,0,1.1-0.3,1.2-0.9H132.2z M131.5,75.2c0-0.7-0.6-1.3-1.3-1.3c-0.8,0-1.3,0.6-1.3,1.3H131.5z"/>
	<path fill="#FFFFFF" d="M133.4,73.3h0.7v1h0c0.4-0.7,0.9-1.1,1.7-1.1V74c-1.2,0-1.7,0.7-1.7,1.9V78h-0.8V73.3z"/>
	<path fill="#FFFFFF" d="M150,73.5c-0.2-0.9-0.9-1.4-1.8-1.4c-1.5,0-2.2,1.3-2.2,2.6c0,1.5,0.6,2.7,2.2,2.7c1.1,0,1.8-0.8,1.9-1.9
		h0.9c-0.2,1.6-1.2,2.6-2.8,2.6c-2,0-3-1.5-3-3.3c0-1.9,1.1-3.4,3-3.4c1.3,0,2.4,0.7,2.6,2.1H150z"/>
	<path fill="#FFFFFF" d="M154.2,73.2c1.5,0,2.3,1.1,2.3,2.4c0,1.4-0.8,2.4-2.3,2.4c-1.5,0-2.3-1.1-2.3-2.4
		C152,74.3,152.8,73.2,154.2,73.2z M154.2,77.4c0.8,0,1.4-0.6,1.4-1.8c0-1.1-0.6-1.8-1.4-1.8c-0.8,0-1.4,0.6-1.4,1.8
		C152.8,76.8,153.4,77.4,154.2,77.4z"/>
	<path fill="#FFFFFF" d="M157.8,71.6h0.8V78h-0.8V71.6z"/>
	<path fill="#FFFFFF" d="M162.1,73.2c1.5,0,2.3,1.1,2.3,2.4c0,1.4-0.8,2.4-2.3,2.4c-1.5,0-2.3-1.1-2.3-2.4
		C159.9,74.3,160.7,73.2,162.1,73.2z M162.1,77.4c0.8,0,1.4-0.6,1.4-1.8c0-1.1-0.6-1.8-1.4-1.8c-0.8,0-1.4,0.6-1.4,1.8
		C160.7,76.8,161.3,77.4,162.1,77.4z"/>
	<path fill="#FFFFFF" d="M165.6,73.3h0.7v1h0c0.4-0.7,0.9-1.1,1.7-1.1V74c-1.2,0-1.7,0.7-1.7,1.9V78h-0.8V73.3z"/>
	<path fill="#FFFFFF" d="M173.1,78c-0.1,0.1-0.3,0.1-0.5,0.1c-0.4,0-0.6-0.2-0.6-0.7c-0.4,0.5-1,0.7-1.6,0.7c-0.8,0-1.5-0.4-1.5-1.3
		c0-1.1,0.8-1.3,1.6-1.4c0.8-0.2,1.6-0.1,1.6-0.7c0-0.7-0.5-0.8-1-0.8c-0.6,0-1.1,0.2-1.2,0.9h-0.8c0-1.2,0.9-1.6,2-1.6
		c0.8,0,1.7,0.2,1.7,1.3v2.4c0,0.4,0,0.5,0.2,0.5c0.1,0,0.1,0,0.2,0V78z M171.9,75.6c-0.3,0.2-0.9,0.2-1.4,0.3
		c-0.5,0.1-0.9,0.3-0.9,0.8c0,0.5,0.4,0.7,0.9,0.7c1,0,1.4-0.6,1.4-1.1V75.6z"/>
	<path fill="#FFFFFF" d="M178.3,78h-0.8v-0.6h0c-0.3,0.5-0.8,0.7-1.5,0.7c-1.4,0-2.1-1.1-2.1-2.4c0-1.3,0.7-2.4,2.1-2.4
		c0.5,0,1.2,0.2,1.5,0.7h0v-2.4h0.8V78z M176.2,77.4c1,0,1.4-0.9,1.4-1.8c0-0.9-0.4-1.8-1.5-1.8c-1,0-1.4,0.9-1.4,1.8
		C174.7,76.6,175.2,77.4,176.2,77.4z"/>
	<path fill="#FFFFFF" d="M181.9,73.2c1.5,0,2.3,1.1,2.3,2.4c0,1.4-0.8,2.4-2.3,2.4c-1.5,0-2.3-1.1-2.3-2.4
		C179.6,74.3,180.4,73.2,181.9,73.2z M181.9,77.4c0.8,0,1.4-0.6,1.4-1.8c0-1.1-0.6-1.8-1.4-1.8c-0.8,0-1.4,0.6-1.4,1.8
		C180.4,76.8,181.1,77.4,181.9,77.4z"/>
	<path fill="#FFFFFF" d="M192.1,73.5c-0.1-0.9-0.7-1.3-1.6-1.3c-0.7,0-1.4,0.3-1.4,1.1c0,0.8,1,0.9,2.1,1.1c1,0.2,2.1,0.6,2.1,1.9
		c0,1.4-1.3,1.9-2.5,1.9c-1.4,0-2.7-0.7-2.7-2.3h0.8c0,1.1,0.9,1.5,1.9,1.5c0.8,0,1.6-0.2,1.6-1.2c0-0.9-1-1-2.1-1.3
		c-1-0.2-2.1-0.5-2.1-1.7c0-1.3,1.2-1.9,2.3-1.9c1.3,0,2.3,0.6,2.4,2H192.1z"/>
	<path fill="#FFFFFF" d="M194.5,73.3h0.8V74h0c0.3-0.5,0.8-0.7,1.5-0.7c1.4,0,2.1,1.1,2.1,2.4c0,1.3-0.7,2.4-2.1,2.4
		c-0.5,0-1.2-0.2-1.5-0.7h0v2.4h-0.8V73.3z M196.6,73.9c-1,0-1.4,0.9-1.4,1.8c0,0.9,0.4,1.8,1.5,1.8c1,0,1.4-0.9,1.4-1.8
		C198.1,74.8,197.6,73.9,196.6,73.9z"/>
	<path fill="#FFFFFF" d="M200.1,73.3h0.7v1h0c0.4-0.7,0.9-1.1,1.7-1.1V74c-1.2,0-1.7,0.7-1.7,1.9V78h-0.8V73.3z"/>
	<path fill="#FFFFFF" d="M204.3,72.5h-0.8v-0.9h0.8V72.5z M203.5,73.3h0.8V78h-0.8V73.3z"/>
	<path fill="#FFFFFF" d="M205.9,73.3h0.7v0.7h0c0.3-0.6,0.8-0.8,1.5-0.8c1.2,0,1.6,0.7,1.6,1.7V78h-0.8v-3.2c0-0.6-0.4-0.9-0.9-0.9
		c-0.9,0-1.4,0.6-1.4,1.5V78h-0.8V73.3z"/>
	<path fill="#FFFFFF" d="M215.2,77.6c0,1.5-0.7,2.3-2.2,2.3c-0.9,0-1.9-0.4-1.9-1.4h0.8c0,0.6,0.7,0.8,1.2,0.8c1,0,1.4-0.7,1.4-1.8
		v-0.3h0c-0.3,0.6-0.9,0.8-1.5,0.8c-1.4,0-2.1-1.1-2.1-2.4c0-1.1,0.5-2.5,2.2-2.5c0.6,0,1.1,0.3,1.4,0.8h0v-0.7h0.7V77.6z
		 M214.5,75.6c0-0.8-0.4-1.7-1.3-1.7c-1,0-1.4,0.8-1.4,1.7c0,0.8,0.3,1.8,1.3,1.8C214.1,77.4,214.5,76.4,214.5,75.6z"/>
	<path fill="#FFFFFF" d="M217.2,76.5c0,0.7,0.6,0.9,1.3,0.9c0.5,0,1.1-0.1,1.1-0.7c0-0.6-0.8-0.7-1.5-0.9c-0.8-0.2-1.5-0.4-1.5-1.3
		c0-0.9,0.9-1.3,1.7-1.3c1,0,1.8,0.3,1.9,1.5h-0.8c-0.1-0.6-0.6-0.8-1.1-0.8c-0.5,0-1,0.1-1,0.6c0,0.5,0.8,0.6,1.5,0.8
		c0.8,0.2,1.5,0.4,1.5,1.3c0,1.1-1,1.5-2,1.5c-1,0-1.9-0.4-2-1.6H217.2z"/>
	<path fill="#FFFFFF" d="M230.3,71.6h2.2c2,0,3.1,1,3.1,3.1c0,2.2-0.9,3.4-3.1,3.4h-2.2V71.6z M231.2,77.3h1.4
		c0.6,0,2.2-0.2,2.2-2.5c0-1.5-0.6-2.5-2.1-2.5h-1.4V77.3z"/>
	<path fill="#FFFFFF" d="M240.8,76.5c-0.2,1-0.9,1.6-2,1.6c-1.5,0-2.2-1-2.2-2.4c0-1.4,0.9-2.4,2.2-2.4c1.6,0,2.2,1.5,2.1,2.7h-3.5
		c0,0.8,0.4,1.5,1.4,1.5c0.6,0,1.1-0.3,1.2-0.9H240.8z M240.1,75.2c0-0.7-0.6-1.3-1.3-1.3c-0.8,0-1.3,0.6-1.3,1.3H240.1z"/>
	<path fill="#FFFFFF" d="M242.1,73.3h0.7v0.7h0c0.3-0.6,0.8-0.8,1.5-0.8c1.2,0,1.6,0.7,1.6,1.7V78h-0.8v-3.2c0-0.6-0.4-0.9-0.9-0.9
		c-0.9,0-1.4,0.6-1.4,1.5V78h-0.8V73.3z"/>
	<path fill="#FFFFFF" d="M249.5,78h-0.8l-1.7-4.7h0.9l1.3,3.9h0l1.3-3.9h0.8L249.5,78z"/>
	<path fill="#FFFFFF" d="M256.3,76.5c-0.2,1-0.9,1.6-2,1.6c-1.5,0-2.2-1-2.2-2.4c0-1.4,0.9-2.4,2.2-2.4c1.6,0,2.2,1.5,2.1,2.7h-3.5
		c0,0.8,0.4,1.5,1.4,1.5c0.6,0,1.1-0.3,1.2-0.9H256.3z M255.5,75.2c0-0.7-0.6-1.3-1.3-1.3c-0.8,0-1.3,0.6-1.3,1.3H255.5z"/>
	<path fill="#FFFFFF" d="M257.4,73.3h0.7v1h0c0.4-0.7,0.9-1.1,1.7-1.1V74c-1.2,0-1.7,0.7-1.7,1.9V78h-0.8V73.3z"/>
	<path fill="#FFFFFF" d="M271.3,71.6h0.9l2.5,6.4h-0.9l-0.7-1.9h-2.7l-0.7,1.9h-0.9L271.3,71.6z M270.6,75.3h2.2l-1.1-3h0
		L270.6,75.3z"/>
	<path fill="#FFFFFF" d="M275.6,73.3h0.7v0.7h0c0.3-0.6,0.8-0.8,1.5-0.8c1.2,0,1.6,0.7,1.6,1.7V78h-0.8v-3.2c0-0.6-0.4-0.9-0.9-0.9
		c-0.9,0-1.4,0.6-1.4,1.5V78h-0.8V73.3z"/>
	<path fill="#FFFFFF" d="M281.4,76.5c0,0.7,0.6,0.9,1.3,0.9c0.5,0,1.1-0.1,1.1-0.7c0-0.6-0.8-0.7-1.5-0.9c-0.8-0.2-1.5-0.4-1.5-1.3
		c0-0.9,0.9-1.3,1.7-1.3c1,0,1.8,0.3,1.9,1.5h-0.8c-0.1-0.6-0.6-0.8-1.1-0.8c-0.5,0-1,0.1-1,0.6c0,0.5,0.8,0.6,1.5,0.8
		c0.8,0.2,1.5,0.4,1.5,1.3c0,1.1-1,1.5-2,1.5c-1,0-1.9-0.4-2-1.6H281.4z"/>
	<path fill="#FFFFFF" d="M289,74.8c-0.1-0.6-0.5-0.9-1.2-0.9c-1.1,0-1.4,0.9-1.4,1.8c0,0.9,0.4,1.7,1.4,1.7c0.7,0,1.2-0.4,1.3-1.1
		h0.8c-0.2,1.1-0.9,1.8-2.1,1.8c-1.4,0-2.2-1-2.2-2.4c0-1.4,0.7-2.5,2.2-2.5c1.1,0,1.9,0.5,2,1.6H289z"/>
	<path fill="#FFFFFF" d="M291,71.6h0.8V74h0c0.3-0.6,0.9-0.8,1.5-0.8c1.2,0,1.6,0.7,1.6,1.7V78h-0.8v-3.2c0-0.6-0.4-0.9-0.9-0.9
		c-0.9,0-1.4,0.6-1.4,1.5V78H291V71.6z"/>
	<path fill="#FFFFFF" d="M300.2,78h-0.7v-0.7h0c-0.3,0.6-0.8,0.8-1.5,0.8c-1.2,0-1.6-0.7-1.6-1.7v-3.1h0.8v3.2
		c0,0.6,0.4,0.9,0.9,0.9c0.9,0,1.4-0.6,1.4-1.5v-2.6h0.8V78z"/>
	<path fill="#FFFFFF" d="M302.8,73.3h0.9V74h-0.9v2.9c0,0.4,0.1,0.4,0.6,0.4h0.4V78h-0.6c-0.8,0-1.1-0.2-1.1-1v-3h-0.8v-0.7h0.8
		v-1.4h0.8V73.3z"/>
	<path fill="#FFFFFF" d="M304.6,77.4l2.8-3.4h-2.6v-0.7h3.6v0.5l-2.8,3.5h3V78h-3.9V77.4z"/>
	<path fill="#FFFFFF" d="M312.6,71.6h1.2l2,5.4l2-5.4h1.2V78h-0.8v-5.3h0l-2,5.3h-0.7l-2-5.3h0V78h-0.8V71.6z"/>
	<path fill="#FFFFFF" d="M324.6,76.5c-0.2,1-0.9,1.6-2,1.6c-1.5,0-2.2-1-2.2-2.4c0-1.4,0.9-2.4,2.2-2.4c1.6,0,2.2,1.5,2.1,2.7h-3.5
		c0,0.8,0.4,1.5,1.4,1.5c0.6,0,1.1-0.3,1.2-0.9H324.6z M323.9,75.2c0-0.7-0.6-1.3-1.3-1.3c-0.8,0-1.3,0.6-1.3,1.3H323.9z"/>
	<path fill="#FFFFFF" d="M330,78h-0.8v-0.6h0c-0.3,0.5-0.8,0.7-1.5,0.7c-1.4,0-2.1-1.1-2.1-2.4c0-1.3,0.7-2.4,2.1-2.4
		c0.5,0,1.2,0.2,1.5,0.7h0v-2.4h0.8V78z M327.9,77.4c1,0,1.4-0.9,1.4-1.8c0-0.9-0.4-1.8-1.5-1.8c-1,0-1.4,0.9-1.4,1.8
		C326.4,76.6,326.9,77.4,327.9,77.4z"/>
	<path fill="#FFFFFF" d="M332.4,72.5h-0.8v-0.9h0.8V72.5z M331.6,73.3h0.8V78h-0.8V73.3z"/>
	<path fill="#FFFFFF" d="M337.1,74.8c-0.1-0.6-0.5-0.9-1.2-0.9c-1.1,0-1.4,0.9-1.4,1.8c0,0.9,0.4,1.7,1.4,1.7c0.7,0,1.2-0.4,1.3-1.1
		h0.8c-0.2,1.1-0.9,1.8-2.1,1.8c-1.4,0-2.2-1-2.2-2.4c0-1.4,0.7-2.5,2.2-2.5c1.1,0,1.9,0.5,2,1.6H337.1z"/>
	<path fill="#FFFFFF" d="M343.2,78c-0.1,0.1-0.3,0.1-0.5,0.1c-0.4,0-0.6-0.2-0.6-0.7c-0.4,0.5-1,0.7-1.6,0.7c-0.8,0-1.5-0.4-1.5-1.3
		c0-1.1,0.8-1.3,1.6-1.4c0.8-0.2,1.6-0.1,1.6-0.7c0-0.7-0.5-0.8-1-0.8c-0.6,0-1.1,0.2-1.2,0.9H339c0-1.2,0.9-1.6,2-1.6
		c0.8,0,1.7,0.2,1.7,1.3v2.4c0,0.4,0,0.5,0.2,0.5c0.1,0,0.1,0,0.2,0V78z M342,75.6c-0.3,0.2-0.9,0.2-1.4,0.3
		c-0.5,0.1-0.9,0.3-0.9,0.8c0,0.5,0.4,0.7,0.9,0.7c1,0,1.4-0.6,1.4-1.1V75.6z"/>
	<path fill="#FFFFFF" d="M344.3,71.6h0.8V78h-0.8V71.6z"/>
	<path fill="#FFFFFF" d="M354.2,73.5c-0.2-0.9-0.9-1.4-1.8-1.4c-1.5,0-2.2,1.3-2.2,2.6c0,1.5,0.6,2.7,2.2,2.7c1.1,0,1.8-0.8,1.9-1.9
		h0.9c-0.2,1.6-1.2,2.6-2.8,2.6c-2,0-3-1.5-3-3.3c0-1.9,1.1-3.4,3-3.4c1.3,0,2.4,0.7,2.6,2.1H354.2z"/>
	<path fill="#FFFFFF" d="M360.5,78c-0.1,0.1-0.3,0.1-0.5,0.1c-0.4,0-0.6-0.2-0.6-0.7c-0.4,0.5-1,0.7-1.6,0.7c-0.8,0-1.5-0.4-1.5-1.3
		c0-1.1,0.8-1.3,1.6-1.4c0.8-0.2,1.6-0.1,1.6-0.7c0-0.7-0.5-0.8-1-0.8c-0.6,0-1.1,0.2-1.2,0.9h-0.8c0-1.2,0.9-1.6,2-1.6
		c0.8,0,1.7,0.2,1.7,1.3v2.4c0,0.4,0,0.5,0.2,0.5c0.1,0,0.1,0,0.2,0V78z M359.3,75.6c-0.3,0.2-0.9,0.2-1.4,0.3
		c-0.5,0.1-0.9,0.3-0.9,0.8c0,0.5,0.4,0.7,0.9,0.7c1,0,1.4-0.6,1.4-1.1V75.6z"/>
	<path fill="#FFFFFF" d="M361.6,73.3h0.7V74h0c0.3-0.5,0.9-0.8,1.5-0.8c0.6,0,1.1,0.2,1.3,0.8c0.3-0.5,0.9-0.8,1.5-0.8
		c0.9,0,1.5,0.4,1.5,1.4V78h-0.8v-3.1c0-0.6-0.2-1-0.9-1c-0.7,0-1.2,0.5-1.2,1.2V78h-0.8v-3.1c0-0.6-0.2-1-0.9-1
		c-0.9,0-1.2,0.8-1.2,1.2V78h-0.8V73.3z"/>
	<path fill="#FFFFFF" d="M369.6,73.3h0.8V74h0c0.3-0.5,0.8-0.7,1.5-0.7c1.4,0,2.1,1.1,2.1,2.4c0,1.3-0.7,2.4-2.1,2.4
		c-0.5,0-1.2-0.2-1.5-0.7h0v2.4h-0.8V73.3z M371.8,73.9c-1,0-1.4,0.9-1.4,1.8c0,0.9,0.4,1.8,1.5,1.8c1,0,1.4-0.9,1.4-1.8
		C373.2,74.8,372.8,73.9,371.8,73.9z"/>
	<path fill="#FFFFFF" d="M379.2,78h-0.7v-0.7h0c-0.3,0.6-0.8,0.8-1.5,0.8c-1.2,0-1.6-0.7-1.6-1.7v-3.1h0.8v3.2
		c0,0.6,0.4,0.9,0.9,0.9c0.9,0,1.4-0.6,1.4-1.5v-2.6h0.8V78z"/>
	<path fill="#FFFFFF" d="M381.1,76.5c0,0.7,0.6,0.9,1.3,0.9c0.5,0,1.1-0.1,1.1-0.7c0-0.6-0.8-0.7-1.5-0.9c-0.8-0.2-1.5-0.4-1.5-1.3
		c0-0.9,0.9-1.3,1.7-1.3c1,0,1.8,0.3,1.9,1.5h-0.8c-0.1-0.6-0.6-0.8-1.1-0.8c-0.5,0-1,0.1-1,0.6c0,0.5,0.8,0.6,1.5,0.8
		c0.8,0.2,1.5,0.4,1.5,1.3c0,1.1-1,1.5-2,1.5c-1,0-1.9-0.4-2-1.6H381.1z"/>
</g>
<polygon fill="#CFB87C" points="19.8,17.4 10,27.2 10,61.1 19.8,70.9 30.6,70.9 30.6,79.2 40.5,89 69.2,89 79.1,79.2 79.1,52.9
	84.2,52.9 84.2,35.5 63.6,35.5 63.6,27.2 53.8,17.4 "/>
<polygon points="53.4,18.4 62.6,27.7 62.6,36.5 83.1,36.5 83.1,51.9 78.1,51.9 78.1,78.8 68.8,88 40.9,88 31.6,78.8 31.6,69.9
	20.3,69.9 11,60.7 11,27.7 20.3,18.4 "/>
<polygon fill="#FFFFFF" points="21.3,67.4 34.2,67.4 34.2,77.7 42,85.4 67.7,85.4 75.5,77.7 75.5,49.4 80.6,49.4 80.6,39 65.1,39
	65.1,75.1 44.5,75.1 44.5,67.4 52.3,67.4 60,59.6 60,49.4 49.7,49.4 49.7,57 44.5,57 44.5,39 29,39 29,49.4 34.2,49.4 34.2,57
	23.9,57 23.9,31.2 49.7,31.2 49.7,39 60,39 60,28.7 52.3,21 21.3,21 13.6,28.7 13.6,59.6 "/>
<polygon fill="#CFB87C" points="43.3,66.1 51.8,66.1 58.7,59.1 58.7,50.6 50.9,50.6 50.9,58.3 43.3,58.3 43.3,40.3 30.3,40.3
	30.3,48.1 35.5,48.1 35.5,58.3 22.6,58.3 22.6,30 50.9,30 50.9,37.7 58.7,37.7 58.7,29.2 51.8,22.2 21.8,22.2 14.8,29.2 14.8,59.1
	21.8,66.1 35.5,66.1 35.5,77.2 42.5,84.2 67.2,84.2 74.3,77.2 74.3,48.1 79.3,48.1 79.3,40.3 66.3,40.3 66.3,76.4 43.3,76.4 "/>
</svg>
