<svg xmlns="http://www.w3.org/2000/svg" viewBox="0 0 368 368"><path d="M184 0C82.544 0 0 82.544 0 184s82.544 184 184 184 184-82.544 184-184S285.456 0 184 0zm0 352c-92.64 0-168-75.36-168-168S91.36 16 184 16s168 75.36 168 168-75.36 168-168 168z"/><path d="M120 176c13.232 0 24-10.768 24-24s-10.768-24-24-24-24 10.768-24 24 10.768 24 24 24zm0-32c4.408 0 8 3.592 8 8s-3.592 8-8 8-8-3.592-8-8 3.592-8 8-8zm128-16c-13.232 0-24 10.768-24 24s10.768 24 24 24 24-10.768 24-24-10.768-24-24-24zm0 32c-4.408 0-8-3.592-8-8s3.592-8 8-8c4.408 0 8 3.592 8 8s-3.592 8-8 8zm16 64H104c-4.416 0-8 3.584-8 8s3.584 8 8 8h160c4.416 0 8-3.584 8-8s-3.584-8-8-8z"/></svg>