<svg xmlns="http://www.w3.org/2000/svg" viewBox="0 0 368 368"><path d="M184 224c-29.824 0-58.232 12.632-77.96 34.664a8.006 8.006 0 0 0 .624 11.296A7.951 7.951 0 0 0 112 272a7.963 7.963 0 0 0 5.96-2.664C134.656 250.688 158.728 240 184 240c25.28 0 49.352 10.688 66.04 29.336 2.944 3.296 8.008 3.568 11.296.624 3.288-2.944 3.568-8 .624-11.296C242.24 236.64 213.832 224 184 224z"/><path d="M184 0C82.536 0 0 82.544 0 184s82.536 184 184 184 184-82.544 184-184S285.464 0 184 0zm0 352c-92.632 0-168-75.36-168-168S91.368 16 184 16s168 75.36 168 168-75.368 168-168 168z"/><path d="M280 128c-4.424 0-8 3.584-8 8 0 13.232-10.768 24-24 24s-24-10.768-24-24c0-4.416-3.576-8-8-8s-8 3.584-8 8c0 22.056 17.944 40 40 40s40-17.944 40-40c0-4.416-3.576-8-8-8zm-120 8c0-4.416-3.576-8-8-8s-8 3.584-8 8c0 13.232-10.768 24-24 24s-24-10.768-24-24c0-4.416-3.576-8-8-8s-8 3.584-8 8c0 22.056 17.944 40 40 40s40-17.944 40-40z"/></svg>